<svg width="139" height="85" viewBox="0 0 139 85" fill="none" xmlns="http://www.w3.org/2000/svg">
<path d="M55.0508 54.4765H66.7289V21.1294L55.0508 30.0954V18.6127L67.3858 9.1748H77.6772V54.4765H87.1657V64.229H55.0508V54.4765Z" fill="#24282B"/>
<path opacity="0.1" d="M22.3315 10.3294C21.1888 12.3882 19.8833 14.4924 18.0959 16.0278C17.8064 13.5861 18.6323 11.0231 19.83 8.86618L19.83 8.86616C21.0645 6.64264 22.8418 4.56685 25.0784 3.47431C24.6298 5.90665 23.5094 8.2075 22.3315 10.3294L22.3315 10.3294ZM12.2987 18.7867C11.6018 16.2069 11.8496 13.1473 12.8823 10.6105C13.5149 11.0502 14.0034 11.7241 14.3844 12.5282C14.8501 13.5109 15.1307 14.6369 15.3209 15.634C15.7588 17.9305 15.924 20.3656 15.558 22.6861L16.5403 22.8709C16.6873 22.1991 16.848 21.5276 17.0225 20.8567L17.3699 20.9974C18.1256 19.6581 19.1913 18.495 20.429 17.6208L20.4291 17.6208C21.8988 16.5826 23.7884 15.9712 25.376 16.5129C24.4299 18.4456 22.9032 20.1785 21.2616 21.3299C20.5348 21.8396 19.7292 22.393 18.8716 22.7915C18.015 23.1895 17.1472 23.4132 16.2951 23.3045L16.1633 23.2877L15.9544 23.2429L15.9483 23.2415L15.9483 23.2415L15.9405 23.2399C15.0044 23.0546 14.2307 22.4507 13.6129 21.6163C12.9945 20.7811 12.5584 19.7478 12.2987 18.7867ZM15.3712 32.0564C15.3954 31.4015 15.4323 30.7453 15.4819 30.0881L15.848 30.1658C16.339 28.783 17.1114 27.5527 18.0551 26.7121L18.0551 26.712C18.7441 26.0981 19.5547 25.4563 20.4383 25.0437C21.1709 24.7015 21.9311 24.5269 22.7051 24.6404C22.1679 26.6783 21.0092 28.6369 19.6368 30.0558L19.9962 30.4034L19.6368 30.0558C19.0239 30.6895 18.344 31.3776 17.5864 31.9297C16.8295 32.4813 16.0293 32.8711 15.1833 32.9456L14.9878 32.9628L14.8546 32.9585L14.8229 32.9575L14.8119 32.9571L14.8008 32.9573L14.79 32.9574L14.79 32.9574C13.837 32.969 12.9616 32.5443 12.1932 31.8657C11.4237 31.1861 10.7918 30.2766 10.3448 29.3956C9.16917 27.0783 8.79254 24.1043 9.28804 21.4675C9.99261 21.7603 10.6052 22.304 11.14 22.994C11.7938 23.8375 12.2989 24.8583 12.6887 25.7849C13.5905 27.9289 14.2354 30.2773 14.3064 32.6206L15.3043 32.6481C15.3196 32.469 15.3405 32.2891 15.3664 32.1092L15.3702 32.083L15.3712 32.0564ZM15.8897 41.4422C15.7986 40.8308 15.7186 40.2167 15.6497 39.6003L16.024 39.61C16.2537 38.202 16.7737 36.8884 17.5246 35.9071L17.5247 35.907C18.0868 35.172 18.7624 34.3892 19.5518 33.8148C20.2048 33.3396 20.916 33.0208 21.6936 32.9757C21.5554 35.0511 20.7855 37.1731 19.7114 38.8142L20.1298 39.088L19.7114 38.8142C19.2284 39.5522 18.6904 40.3554 18.0518 41.043C17.4136 41.7301 16.703 42.2705 15.8894 42.5159L15.7077 42.5707L15.5653 42.5966L15.5141 42.6059L15.5141 42.6058L15.5059 42.6075L15.5017 42.6083L15.5016 42.6082L15.4925 42.6102C14.5589 42.8144 13.6201 42.5777 12.7389 42.0732C11.8558 41.5676 11.0632 40.81 10.4561 40.0411L10.0637 40.3509L10.4561 40.0411C8.87416 38.0376 7.93428 35.2385 7.9127 32.5874C8.66051 32.7277 9.3663 33.1289 10.0238 33.6873C10.8265 34.3689 11.5192 35.2533 12.0814 36.0758L12.4942 35.7936L12.0814 36.0758C13.3752 37.9683 14.4496 40.1176 14.956 42.3783L15.9413 42.2176C15.9169 41.9815 15.9016 41.7426 15.895 41.5022L15.8942 41.4721L15.8897 41.4422ZM18.3616 51.1958C18.1539 50.6248 17.9564 50.0496 17.7695 49.4707L18.14 49.4039C18.0647 47.7441 18.3492 46.0599 18.9781 44.6154L18.9781 44.6153C19.7919 42.7454 21.2617 41.0052 23.1256 40.5267C23.3732 42.801 22.8755 45.1902 22.0955 47.367L22.0955 47.367C21.397 49.317 20.3229 51.4095 18.6151 52.3589L18.4438 52.4541L18.3054 52.5151L18.2265 52.5499L18.2265 52.5499L18.2204 52.5527C17.119 53.0564 16.0384 52.9867 14.9883 52.6132C13.9242 52.2347 12.9153 51.5521 11.994 50.8604L11.6938 51.2603L11.994 50.8604C9.74068 49.1689 8.14043 46.0313 7.60184 42.9917C8.54578 42.9616 9.44273 43.2793 10.3024 43.7885C11.3181 44.39 12.2378 45.2319 13.0788 46.0116L13.4187 45.645L13.0788 46.0116C14.8662 47.6688 16.5829 49.8965 17.6166 52.2875L18.5555 51.9488C18.4894 51.7228 18.4309 51.4931 18.3803 51.2604L18.3732 51.2275L18.3616 51.1958ZM22.7123 60.2031C22.3905 59.68 22.0786 59.151 21.7768 58.6165L22.1286 58.4751C21.6967 56.797 21.6388 55.0511 22.0591 53.5537C22.6645 51.3962 23.568 49.341 25.5391 48.4181C26.2708 50.7454 26.1626 53.1901 25.8775 55.6536C25.6328 57.767 24.9343 60.184 23.3699 61.559L23.2287 61.6831L23.0938 61.7841C23.0687 61.8029 23.0429 61.8218 23.0165 61.8409L23.0164 61.8408L23.0086 61.8467C20.9466 63.3996 18.4013 62.5497 16.2225 61.5051C13.6007 60.2481 11.0984 57.375 10.0254 54.3102C11.0121 54.0579 12.0209 54.1924 13.0275 54.5377C14.1961 54.9385 15.3139 55.6061 16.3365 56.2235C18.5193 57.5413 20.7412 59.4453 22.3206 61.66L23.1672 61.1312C23.0156 60.8519 22.8745 60.5624 22.7446 60.265L22.7306 60.2329L22.7123 60.2031ZM29.5516 68.9282C29.0792 68.4492 28.6177 67.9614 28.1671 67.4652L28.4807 67.2448C27.5878 65.5665 27.0894 63.706 27.1959 61.9905C27.3454 59.5849 27.846 57.2019 29.7645 55.7778C31.053 57.9421 31.6173 60.7725 31.7426 63.2339C31.8642 65.6228 31.9121 68.2175 30.5219 70.1132L30.4055 70.272L30.2992 70.3959L30.2449 70.4591L30.2412 70.4636C29.3319 71.5492 28.1531 72.0096 26.8763 72.1295C25.5855 72.2508 24.2179 72.0209 22.9827 71.7378C19.8878 71.0284 16.5586 68.5476 14.743 65.5226C15.7411 65.0135 16.8511 64.924 18.002 65.0612C19.3209 65.2185 20.6426 65.6665 21.8484 66.077L21.8516 66.078L21.86 66.0808C21.8606 66.081 21.8612 66.0812 21.8618 66.0814C24.4826 66.9738 27.2605 68.4508 29.4711 70.3854L30.1728 69.6756C29.9725 69.4519 29.7785 69.2178 29.5924 68.975L29.5734 68.9503L29.5516 68.9282ZM39.6138 76.7677C38.9895 76.3998 38.3758 76.02 37.773 75.6286L38.019 75.3272C36.453 73.74 35.3016 71.7322 34.9133 69.818C34.4115 67.3425 34.3338 64.6739 36.0301 62.6782C37.9206 64.5959 39.1526 67.3588 40.1083 69.9394C40.537 71.097 40.9376 72.4419 41.1066 73.7891C41.2759 75.1394 41.208 76.4568 40.736 77.5838L40.663 77.7581L40.5844 77.9107C39.9025 79.2355 38.7715 80.0224 37.4493 80.4852C36.1178 80.9511 34.6171 81.0784 33.2553 81.0893C29.6222 81.1181 25.5729 79.3621 22.7875 76.6202C23.6986 75.8432 24.8558 75.4711 26.1183 75.3236C27.5542 75.1558 29.068 75.2845 30.4217 75.4011L30.4225 75.4012L30.4567 75.4042L30.4575 75.4043C33.3505 75.6535 36.4027 76.4251 39.156 77.655L39.6138 76.7677Z" fill="#24282B" stroke="#24282B"/>
<path opacity="0.1" d="M114.577 10.1523C115.784 12.1736 117.156 14.2352 118.991 15.7129C119.203 13.2632 118.296 10.7279 117.03 8.61016L117.03 8.61014C115.726 6.42705 113.883 4.4089 111.613 3.38811C112.139 5.80494 113.332 8.06895 114.577 10.1523L114.577 10.1523ZM124.873 18.2859C125.488 15.6852 125.143 12.635 124.03 10.1324C123.412 10.5921 122.945 11.2811 122.59 12.097C122.155 13.094 121.911 14.2283 121.752 15.231C121.388 17.5402 121.3 19.9794 121.74 22.2871L120.764 22.5031C120.596 21.8363 120.414 21.1702 120.218 20.5052L119.875 20.6569C119.077 19.3424 117.975 18.2138 116.71 17.3794L116.71 17.3794C115.208 16.3885 113.3 15.8376 111.73 16.4296C112.738 18.3312 114.319 20.0146 115.996 21.1131C116.739 21.5995 117.562 22.1269 118.431 22.4979C119.3 22.8685 120.175 23.0644 121.023 22.9286L121.154 22.9076L121.361 22.8562L121.368 22.8547L121.368 22.8546L121.375 22.8528C122.305 22.6378 123.059 22.0095 123.65 21.1559C124.242 20.3015 124.645 19.2548 124.873 18.2859ZM122.225 31.6467C122.18 30.9928 122.122 30.3381 122.052 29.6829L121.688 29.7722C121.153 28.4057 120.342 27.2007 119.372 26.3905L119.372 26.3905C118.664 25.7988 117.833 25.1831 116.937 24.7988C116.194 24.4802 115.429 24.3298 114.659 24.4679C115.26 26.4877 116.481 28.4084 117.898 29.7829L117.55 30.1417L117.898 29.7829C118.531 30.3968 119.232 31.0628 120.007 31.5905C120.781 32.1178 121.593 32.482 122.441 32.5294L122.637 32.5404L122.77 32.5319L122.802 32.5299L122.813 32.5292L122.824 32.5289L122.835 32.5287L122.835 32.5287C123.787 32.51 124.649 32.0576 125.395 31.3549C126.143 30.6512 126.745 29.722 127.164 28.8272C128.265 26.4737 128.547 23.4892 127.968 20.8695C127.273 21.1846 126.678 21.7475 126.166 22.4542C125.539 23.318 125.067 24.3544 124.706 25.293C123.873 27.4645 123.304 29.8323 123.307 32.1767L122.311 32.236C122.29 32.0574 122.263 31.8783 122.232 31.6993L122.227 31.6732L122.225 31.6467ZM122.006 41.0443C122.077 40.4302 122.138 39.8139 122.187 39.1956L121.813 39.2173C121.539 37.8172 120.977 36.5208 120.195 35.564L120.195 35.5638C119.61 34.8472 118.91 34.0863 118.103 33.5373C117.435 33.0831 116.714 32.7871 115.935 32.7668C116.139 34.8367 116.976 36.9332 118.102 38.5392L117.693 38.8262L118.102 38.5392C118.608 39.2614 119.172 40.0471 119.832 40.714C120.492 41.3805 121.219 41.898 122.04 42.1174L122.223 42.1664L122.367 42.1877L122.418 42.1954L122.418 42.1953L122.426 42.1967L122.431 42.1974L122.431 42.1973L122.44 42.199C123.379 42.3734 124.31 42.1069 125.175 41.5746C126.041 41.0411 126.809 40.2587 127.392 39.4708L127.794 39.768L127.392 39.4708C128.909 37.418 129.759 34.5904 129.697 31.9399C128.954 32.104 128.261 32.5274 127.622 33.1065C126.841 33.8134 126.177 34.7193 125.641 35.5593L125.22 35.2904L125.641 35.5593C124.408 37.4921 123.403 39.6745 122.969 41.9501L121.979 41.8209C121.996 41.5841 122.003 41.3449 122.002 41.1044L122.002 41.0742L122.006 41.0443ZM119.845 50.8715C120.035 50.2942 120.214 49.7131 120.382 49.1285L120.01 49.0736C120.032 47.4121 119.694 45.7379 119.02 44.3141L119.02 44.3141C118.147 42.471 116.622 40.7784 114.744 40.3596C114.569 42.6406 115.143 45.0127 115.992 47.1636L115.992 47.1636C116.752 49.0903 117.892 51.1476 119.629 52.0421L119.803 52.1318L119.944 52.1885L120.024 52.2207L120.024 52.2207L120.03 52.2233C121.147 52.6917 122.224 52.5876 123.262 52.1809C124.314 51.7687 125.3 51.0543 126.199 50.3336L126.512 50.7237L126.199 50.3336C128.397 48.5712 129.897 45.3843 130.339 42.3291C129.394 42.3291 128.508 42.6752 127.665 43.2114C126.669 43.845 125.776 44.7157 124.961 45.5218L124.609 45.1662L124.961 45.5219C123.227 47.2351 121.582 49.5164 120.625 51.939L119.676 51.6304C119.734 51.4023 119.786 51.1709 119.829 50.9368L119.835 50.9036L119.845 50.8715ZM115.784 60.0128C116.089 59.4797 116.384 58.9411 116.668 58.3973L116.312 58.2671C116.69 56.5761 116.693 54.8293 116.225 53.346C115.551 51.2089 114.583 49.1834 112.583 48.3238C111.926 50.6732 112.112 53.1132 112.475 55.5664C112.787 57.671 113.562 60.0644 115.17 61.389L115.315 61.5085L115.453 61.6051C115.478 61.6231 115.505 61.6412 115.532 61.6594L115.532 61.6594L115.54 61.665C117.65 63.1515 120.167 62.221 122.312 61.1076C124.892 59.7677 127.302 56.8164 128.277 53.719C127.282 53.4983 126.278 53.6648 125.283 54.042C124.128 54.4798 123.032 55.1827 122.03 55.8323C119.89 57.2189 117.73 59.1927 116.222 61.4565L115.359 60.955C115.501 60.6709 115.633 60.3771 115.753 60.0757L115.766 60.0432L115.784 60.0128ZM109.226 68.9512C109.683 68.4575 110.128 67.9552 110.563 67.4449L110.242 67.2346C111.081 65.5287 111.52 63.6533 111.359 61.942C111.133 59.5425 110.557 57.1766 108.594 55.8142C107.375 58.0185 106.901 60.8654 106.854 63.3296C106.809 65.7211 106.844 68.3161 108.294 70.1665L108.415 70.3215L108.525 70.442L108.581 70.5034L108.585 70.5078C109.529 71.5639 110.721 71.9865 112.002 72.0657C113.295 72.1459 114.655 71.8726 115.881 71.5503C118.951 70.7427 122.2 68.1572 123.918 65.0759C122.905 64.5989 121.792 64.5447 120.646 64.7185C119.333 64.9177 118.026 65.4076 116.834 65.8562L116.831 65.8573L116.823 65.8604C116.822 65.8606 116.821 65.8609 116.821 65.8611C114.23 66.8364 111.5 68.4012 109.353 70.4051L108.629 69.718C108.822 69.488 109.008 69.248 109.186 68.9994L109.205 68.9741L109.226 68.9512ZM99.4181 77.1071C100.03 76.7195 100.632 76.3204 101.222 75.91L100.966 75.6166C102.481 73.9803 103.568 71.9369 103.895 70.0113C104.318 67.5211 104.31 64.8513 102.551 62.9106C100.723 64.8875 99.5796 67.6883 98.7065 70.298C98.3148 71.4686 97.9573 72.8256 97.8313 74.1775C97.705 75.5326 97.8148 76.8471 98.3224 77.9585L98.401 78.1304L98.4844 78.2805C99.2081 79.5829 100.364 80.3334 101.7 80.7538C103.046 81.1771 104.55 81.2566 105.911 81.224C109.543 81.1372 113.535 79.2531 116.231 76.424C115.296 75.6764 114.127 75.3413 112.861 75.234C111.42 75.1121 109.911 75.2889 108.562 75.4486L108.561 75.4487L108.527 75.4527L108.526 75.4528C105.643 75.7941 102.617 76.6624 99.9039 77.9793L99.4181 77.1071Z" fill="#24282B" stroke="#24282B"/>
</svg>
