<svg width="82" height="82" viewBox="0 0 82 82" fill="none" xmlns="http://www.w3.org/2000/svg">
<path d="M52.631 28.8616C51.306 31.9972 47.773 33.3769 44.8709 32.0599C41.9057 30.743 40.5808 27.231 41.7795 24.2208C43.1044 21.0851 46.6374 19.7054 49.5394 21.0224C52.5679 22.3394 53.9556 25.8513 52.631 28.8616Z" fill="#24282B"/>
<path d="M6.95135 62.7907C7.26678 61.9129 8.2131 61.5365 8.97018 61.9129C9.72726 62.2893 10.1058 63.2296 9.91649 63.9824C9.53797 64.8602 8.59166 65.2365 7.83458 64.8602C6.95135 64.5469 6.63586 63.6685 6.95135 62.7907Z" fill="#24282B"/>
<path d="M33.2595 4.84178C32.8809 5.71977 31.9346 6.09603 31.1775 5.71977C30.3574 5.40617 29.9789 4.4655 30.2943 3.65023C30.6728 2.77225 31.493 2.39597 32.3762 2.77225C33.2595 3.08581 33.5749 3.96379 33.2595 4.84178Z" fill="#24282B"/>
<path d="M45.4982 79.7849C45.8767 78.907 46.823 78.5307 47.5801 78.907C48.3372 79.2209 48.6526 80.2243 48.4634 80.9765C48.0848 81.8549 47.1385 82.2307 46.3815 81.8549C45.4982 81.5411 45.1827 80.6632 45.4982 79.7849Z" fill="#24282B"/>
<path d="M72.1271 22.0272C72.5055 21.1492 73.4517 20.7729 74.2091 21.1492C74.9661 21.5882 75.3445 22.5289 75.0922 23.2187C74.7138 24.0967 73.7671 24.473 73.0102 24.0967C72.1271 23.7831 71.8117 22.9051 72.1271 22.0272Z" fill="#24282B"/>
<path d="M66.387 23.6573C66.8916 22.2776 68.5316 21.5251 69.9198 22.2149C71.2444 22.842 71.8757 24.5353 71.6234 25.2251C71.1183 26.6048 69.4783 27.3574 68.0901 26.6675C67.5224 26.354 67.0178 25.9777 66.7655 25.476C67.207 26.6675 67.2701 28.1099 66.7024 29.3642C65.8188 31.4964 63.4849 32.7507 61.2767 32.3744C57.4911 36.6389 52.949 39.3356 48.5327 39.9C47.8386 40.0881 47.1447 40.0881 46.3876 40.0881C47.0816 40.9661 47.6494 42.0322 48.1541 43.0983C48.5327 44.1018 48.8481 45.1679 49.1005 46.3595C50.1098 51.3138 49.4159 57.8986 47.0816 64.4208C48.0279 65.9257 48.3434 67.7444 47.5863 69.438C47.0816 70.6922 46.0722 71.6326 44.8735 72.1346C45.4413 72.0089 46.0722 72.072 46.64 72.3228C48.0279 72.8242 48.785 74.5178 48.091 75.8971C47.5863 77.2769 45.946 78.0296 44.558 77.3395C43.1701 76.838 42.413 75.1449 43.107 73.7651C43.4224 73.0749 43.8009 72.5735 44.4949 72.3228C43.3594 72.6991 42.1606 72.636 41.0881 72.1346C38.5646 71.0686 37.429 68.0582 38.5015 65.4868C38.9431 64.4208 39.7633 63.543 40.6465 63.041C42.9177 57.3341 43.6117 51.8154 42.7284 47.8645C42.4761 47.112 42.2868 46.4222 42.0345 45.8577C41.5298 44.7916 40.8358 43.9136 39.9525 43.5373C38.2491 42.7221 35.8517 43.6628 33.3282 45.7323C30.363 48.1154 27.5871 51.7527 25.442 56.3937C25.6944 57.4597 25.6313 58.5883 25.1897 59.6548C24.1803 62.2257 21.152 63.3548 18.6284 62.2888C17.5559 61.9124 16.6727 60.909 16.1679 59.9681C16.4203 60.5952 16.3572 61.2223 16.1049 61.975C15.6002 63.3548 13.9598 64.107 12.5719 63.4173C11.1839 62.9159 10.4268 61.2223 11.1208 59.843C11.6256 58.4632 13.2659 57.7105 14.6538 58.4001C15.2216 58.7139 15.6632 59.0903 15.9787 59.5917C15.5371 58.4001 15.474 56.9577 16.0418 55.7036C16.7357 54.0105 18.2499 52.9445 19.9533 52.6932C22.6031 47.6137 25.8837 43.4119 29.2905 40.7153C32.1926 38.3949 35.2209 37.0152 38.123 36.8271C35.4101 34.0677 33.7698 30.054 33.3913 25.4132C33.2651 24.2844 33.2651 23.0301 33.3282 21.7759V21.7759C33.3282 21.4623 33.3282 21.0861 33.3913 20.7097C31.5617 19.3301 30.9308 16.8216 31.814 14.6266C32.3187 13.3723 33.3282 12.4316 34.5269 11.93C33.9591 12.0554 33.3282 11.9927 32.7604 11.7418C31.3724 11.2401 30.6153 9.54687 31.3093 8.16716C31.814 6.78746 33.4544 6.0349 34.8423 6.72475C36.2303 7.22648 36.9873 8.91972 36.2934 10.2994C35.9779 10.9892 35.5994 11.4909 34.9054 11.7418C36.041 11.3655 37.2397 11.4282 38.3122 11.93C40.8358 12.9961 41.9714 16.0063 40.8989 18.5775C40.3942 19.5182 39.8264 20.3335 38.9431 20.8352C38.9431 21.2115 38.88 21.6505 38.88 22.0894C38.7538 22.9674 38.88 24.0963 38.9431 24.9743C39.3216 29.4896 41.0881 32.9388 43.9902 34.2558C44.558 34.5067 45.1258 34.6948 45.8198 34.7575C46.4507 34.8202 46.9554 34.8202 47.6494 34.7575C50.6776 34.3812 54.0844 32.249 56.9864 28.8625C56.7972 27.9845 56.9234 26.8556 57.3018 25.9777C58.3116 23.4064 61.3398 22.2776 63.8634 23.3437C64.9357 23.72 65.8188 24.7234 66.3239 25.6641C66.0716 25.037 66.1347 24.4098 66.387 23.6573Z" fill="#24282B"/>
</svg>
