<svg width="186" height="65" viewBox="0 0 186 65" fill="none" xmlns="http://www.w3.org/2000/svg">
<path d="M42.5426 25.8008C43.0444 25.8008 43.2117 25.9791 43.2117 26.4591V37.3208H48.885C49.3729 37.3208 49.5541 37.4991 49.5541 37.9791V38.9391C49.5541 39.4191 49.3729 39.5974 48.885 39.5974H41.4135C40.9256 39.5974 40.7305 39.4191 40.7305 38.9391V26.4591C40.7305 25.9791 40.9256 25.8008 41.4135 25.8008H42.5426Z" fill="#24282B"/>
<path d="M54.5039 30.586C54.5039 27.418 56.5391 25.5117 60.0797 25.5117C63.6203 25.5117 65.6554 27.418 65.6554 30.586V34.81C65.6554 37.978 63.6063 39.8843 60.0797 39.8843C56.553 39.8843 54.5039 37.978 54.5039 34.81V30.586ZM63.3136 30.586C63.3136 28.8031 62.1845 27.8431 60.1494 27.8431C58.1142 27.8431 56.9991 28.8169 56.9991 30.586V34.8374C56.9991 36.634 58.1142 37.5803 60.1494 37.5803C62.1845 37.5803 63.3136 36.5929 63.3136 34.8374V30.586Z" fill="#24282B"/>
<path d="M82.2575 32.0399C82.8011 32.0399 82.9266 32.2182 82.9266 32.6982V35.3039C82.9413 35.9176 82.8163 36.5269 82.5606 37.0869C82.3049 37.647 81.9251 38.1436 81.449 38.5405C80.2665 39.4669 78.7755 39.9264 77.2672 39.8296C73.6569 39.8296 71.6914 37.9233 71.6914 34.7553V30.5039C71.6914 27.377 73.7266 25.457 77.2672 25.457C80.055 25.457 81.8672 26.5405 82.6338 28.7073C82.6768 28.7888 82.6998 28.8789 82.701 28.9705C82.7023 29.0622 82.6818 29.153 82.6412 29.2355C82.6007 29.318 82.541 29.3901 82.4671 29.4461C82.3932 29.5019 82.3071 29.5402 82.2156 29.5576L81.1284 29.9279C80.6544 30.0925 80.4593 29.9965 80.292 29.5165C80.061 28.9307 79.6382 28.4373 79.0904 28.1144C78.5426 27.7916 77.9011 27.6575 77.2672 27.7336C75.2181 27.7336 74.1029 28.7073 74.1029 30.4765V34.8376C74.1029 36.6342 75.232 37.5805 77.2672 37.5805C79.3023 37.5805 80.5569 36.6616 80.5569 35.3176V34.3027H77.532C77.0302 34.3027 76.849 34.1107 76.849 33.6307V32.6982C76.849 32.2182 77.0302 32.0399 77.532 32.0399H82.2575Z" fill="#24282B"/>
<path d="M88.6836 30.586C88.6836 27.418 90.7188 25.5117 94.2594 25.5117C97.8 25.5117 99.8351 27.418 99.8351 30.586V34.81C99.8351 37.978 97.786 39.8843 94.2594 39.8843C90.7327 39.8843 88.6836 37.978 88.6836 34.81V30.586ZM97.4794 30.586C97.4794 28.8031 96.3503 27.8431 94.3291 27.8431C92.3078 27.8431 91.1648 28.8169 91.1648 30.586V34.8374C91.1648 36.634 92.2939 37.5803 94.3291 37.5803C96.3642 37.5803 97.4794 36.5929 97.4794 34.8374V30.586Z" fill="#24282B"/>
<path d="M106.398 26.1985C106.398 25.8968 106.496 25.8008 106.803 25.8008H107.444C107.751 25.8008 107.82 25.8968 107.82 26.1985V39.1996C107.82 39.5014 107.82 39.5974 107.444 39.5974H106.803C106.496 39.5974 106.398 39.5014 106.398 39.1996V26.1985Z" fill="#24282B"/>
<path d="M120.522 25.8008C121.682 25.8008 122.796 26.2544 123.617 27.0621C124.437 27.8696 124.899 28.9649 124.899 30.1071C124.899 31.2492 124.437 32.3446 123.617 33.1521C122.796 33.9597 121.682 34.4134 120.522 34.4134H116.34V39.1996C116.34 39.5014 116.27 39.5974 115.977 39.5974H115.322C115.029 39.5974 114.918 39.5014 114.918 39.1996V26.1985C114.918 25.8968 115.029 25.8008 115.322 25.8008H120.522ZM120.396 33.0556C120.795 33.0556 121.19 32.9783 121.559 32.8281C121.928 32.6778 122.263 32.4576 122.545 32.18C122.827 31.9024 123.051 31.5727 123.204 31.2101C123.356 30.8474 123.435 30.4586 123.435 30.0659C123.435 29.6733 123.356 29.2845 123.204 28.9217C123.051 28.5591 122.827 28.2294 122.545 27.9519C122.263 27.6743 121.928 27.454 121.559 27.3037C121.19 27.1536 120.795 27.0762 120.396 27.0762H116.214V33.0556H120.396Z" fill="#24282B"/>
<path d="M135.784 25.526C136.86 25.4091 137.946 25.6369 138.88 26.1755C139.813 26.7142 140.547 27.5348 140.969 28.5157C141.081 28.7351 140.969 28.9134 140.746 29.0231L140.133 29.2974C139.882 29.3934 139.784 29.3797 139.631 29.1191C139.315 28.3912 138.772 27.7809 138.08 27.3766C137.389 26.9723 136.584 26.7948 135.784 26.87C133.428 26.87 132.145 27.7888 132.145 29.4345C132.132 29.9374 132.303 30.4284 132.629 30.8165C132.954 31.2046 133.411 31.464 133.916 31.5465C134.665 31.7871 135.443 31.9345 136.23 31.9854C137.182 32.0353 138.122 32.2249 139.018 32.5477C139.705 32.7615 140.296 33.2012 140.692 33.7931C141.088 34.385 141.265 35.0929 141.192 35.798C141.192 38.3625 139.296 39.9123 135.811 39.9123C134.668 40.0409 133.515 39.7803 132.544 39.1739C131.572 38.5676 130.841 37.6519 130.473 36.5797C130.448 36.5309 130.435 36.4772 130.434 36.4227C130.433 36.3681 130.444 36.314 130.466 36.2643C130.489 36.2145 130.523 36.1702 130.565 36.1347C130.607 36.099 130.656 36.0731 130.71 36.0585L131.323 35.8391C131.371 35.8196 131.423 35.8103 131.475 35.8117C131.527 35.8131 131.579 35.8251 131.626 35.8471C131.673 35.869 131.715 35.9003 131.749 35.9391C131.784 35.9779 131.809 36.0232 131.825 36.0723C132.137 36.847 132.691 37.5039 133.408 37.9478C134.125 38.3916 134.967 38.5994 135.811 38.5408C138.446 38.5408 139.742 37.6357 139.742 35.798C139.767 35.315 139.617 34.8389 139.318 34.4547C139.019 34.0705 138.592 33.803 138.111 33.6997C137.39 33.4881 136.646 33.3592 135.895 33.3157L134.39 33.1237C133.919 33.0254 133.453 32.9017 132.996 32.7534C132.544 32.6191 132.123 32.4003 131.755 32.1088C131.385 31.7794 131.094 31.374 130.901 30.9213C130.708 30.4686 130.619 29.9798 130.64 29.4894C130.738 27.0894 132.564 25.526 135.784 25.526Z" fill="#24282B"/>
<path d="M148.705 34.9071C148.764 35.8769 149.197 36.788 149.917 37.4541C150.636 38.1202 151.587 38.491 152.573 38.491C153.56 38.491 154.511 38.1202 155.23 37.4541C155.95 36.788 156.382 35.8769 156.442 34.9071V26.1985C156.442 25.8968 156.539 25.8008 156.846 25.8008H157.487C157.794 25.8008 157.891 25.8968 157.891 26.1985V34.8934C157.891 38.0065 156.023 39.8854 152.58 39.8854C149.137 39.8854 147.27 38.0065 147.27 34.8934V26.1985C147.27 25.8968 147.367 25.8008 147.66 25.8008H148.315C148.608 25.8008 148.705 25.8968 148.705 26.1985V34.9071Z" fill="#24282B"/>
<path d="M177.129 25.7992C177.435 25.7992 177.533 25.8952 177.533 26.1969V39.1981C177.533 39.4998 177.435 39.5958 177.129 39.5958H176.543C176.251 39.5958 176.153 39.4998 176.153 39.1981V31.2849C176.153 30.1336 176.232 28.9835 176.39 27.8426H176.306C175.871 28.8859 175.363 29.8986 174.787 30.8735L171.79 36.0712C171.754 36.1615 171.69 36.2385 171.607 36.2924C171.525 36.3462 171.429 36.3743 171.33 36.3729H170.94C170.839 36.3735 170.742 36.3451 170.657 36.2916C170.573 36.238 170.506 36.1615 170.466 36.0712L167.427 30.8186C166.888 29.8577 166.422 28.8583 166.033 27.8289H165.949C166.092 28.9802 166.167 30.1388 166.172 31.2986V39.1981C166.172 39.4998 166.075 39.5958 165.768 39.5958H165.225C164.918 39.5958 164.82 39.4998 164.82 39.1981V26.1969C164.82 25.8952 164.918 25.7992 165.225 25.7992H165.726C165.841 25.7888 165.956 25.8133 166.055 25.8698C166.156 25.9263 166.235 26.0119 166.284 26.1146L171.163 34.6449L176.014 26.1969C176.167 25.9089 176.251 25.8678 176.557 25.8678L177.129 25.7992Z" fill="#24282B"/>
<path d="M17.7433 37.511V47.4264C17.7433 47.8066 17.5898 48.1711 17.3166 48.4398C17.0436 48.7086 16.673 48.8596 16.2866 48.8596C15.9004 48.8596 15.5299 48.7086 15.2567 48.4398C14.9834 48.1711 14.83 47.8066 14.83 47.4264V37.5247C15.2356 37.8161 15.7218 37.9788 16.2239 37.991C16.7712 38.0064 17.3074 37.837 17.7433 37.511ZM30.1494 34.6447C29.7797 34.6447 29.4251 34.7893 29.1637 35.0464C28.9023 35.3035 28.7554 35.6524 28.7554 36.0161V37.7441C28.7554 38.1243 28.9089 38.4888 29.1821 38.7575C29.4552 39.0263 29.8257 39.1773 30.2121 39.1773C30.5985 39.1773 30.969 39.0263 31.2421 38.7575C31.5153 38.4888 31.6688 38.1243 31.6688 37.7441V36.0847C31.6796 35.888 31.6473 35.6914 31.574 35.5082C31.5007 35.3249 31.3882 35.1593 31.2439 35.0227C31.0998 34.8861 30.9273 34.7816 30.7386 34.7163C30.5497 34.6512 30.3487 34.6267 30.1494 34.6447ZM11.6657 41.2687C11.1642 41.2539 10.6786 41.0915 10.2718 40.8024V50.7453C10.2718 51.1272 10.426 51.4935 10.7005 51.7636C10.975 52.0336 11.3472 52.1853 11.7354 52.1853C12.1236 52.1853 12.4959 52.0336 12.7704 51.7636C13.0449 51.4935 13.1991 51.1272 13.1991 50.7453V40.871C12.7439 41.1605 12.2068 41.2998 11.6657 41.2687ZM25.6051 31.6687C25.4162 31.6594 25.2275 31.688 25.0502 31.7528C24.873 31.8175 24.7111 31.9171 24.574 32.0453C24.4371 32.1737 24.3283 32.328 24.2538 32.499C24.1795 32.67 24.1412 32.8542 24.1415 33.0401V40.679C24.1415 41.0609 24.2957 41.4272 24.5701 41.6973C24.8447 41.9673 25.2169 42.119 25.6051 42.119C25.9933 42.119 26.3657 41.9673 26.6401 41.6973C26.9146 41.4272 27.0688 41.0609 27.0688 40.679V33.1361C27.0799 32.9382 27.0473 32.7403 26.9731 32.556C26.899 32.3717 26.7852 32.2054 26.6394 32.0685C26.4936 31.9316 26.3195 31.8274 26.129 31.7632C25.9384 31.6989 25.7359 31.676 25.5354 31.6961L25.6051 31.6687ZM20.9772 34.6036C20.4522 34.6 19.9411 34.4372 19.5136 34.1373V44.1076C19.5136 44.4895 19.6678 44.8558 19.9422 45.1259C20.2169 45.3959 20.589 45.5476 20.9772 45.5476C21.3655 45.5476 21.7376 45.3959 22.0122 45.1259C22.2867 44.8558 22.4409 44.4895 22.4409 44.1076V34.151C21.9987 34.4751 21.4589 34.644 20.9076 34.631L20.9772 34.6036ZM8.50149 42.2424V14.3887C8.49782 14.0492 8.35815 13.7248 8.11282 13.486C7.86749 13.2472 7.5363 13.1133 7.19119 13.1133H6.88452C6.53941 13.1133 6.20822 13.2472 5.96289 13.486C5.71756 13.7248 5.57788 14.0492 5.57422 14.3887V42.2424C5.57422 42.5843 5.71227 42.9122 5.958 43.154C6.20372 43.3958 6.53701 43.5316 6.88452 43.5316H7.19119C7.53871 43.5316 7.87199 43.3958 8.11771 43.154C8.36345 42.9122 8.50149 42.5843 8.50149 42.2424ZM11.8191 40.2127H11.5124C11.1649 40.2127 10.8316 40.0769 10.5859 39.8352C10.3402 39.5934 10.2021 39.2655 10.2021 38.9236V17.7076C10.2058 17.3681 10.3454 17.0437 10.5908 16.8049C10.8361 16.5661 11.1673 16.4321 11.5124 16.4321H11.8191C12.1642 16.4321 12.4954 16.5661 12.7407 16.8049C12.986 17.0437 13.1257 17.3681 13.1294 17.7076V38.951C13.1294 39.2929 12.9913 39.6208 12.7456 39.8626C12.4999 40.1044 12.1666 40.2401 11.8191 40.2401V40.2127ZM16.433 36.9487H16.1124C15.7687 36.9487 15.4388 36.8143 15.1957 36.5751C14.9526 36.336 14.816 36.0116 14.816 35.6733V20.999C14.8142 20.8304 14.8464 20.663 14.9107 20.5067C14.9749 20.3504 15.0702 20.2081 15.1907 20.0883C15.3113 19.9684 15.4549 19.8732 15.6131 19.8082C15.7713 19.7433 15.9409 19.7098 16.1124 19.7099H16.433C16.7781 19.7135 17.1078 19.8509 17.3505 20.0922C17.5933 20.3336 17.7294 20.6595 17.7294 20.999V35.6733C17.7294 36.0116 17.5928 36.336 17.3497 36.5751C17.1066 36.8143 16.7769 36.9487 16.433 36.9487ZM21.0469 33.5887H20.7542C20.4091 33.5887 20.0779 33.4549 19.8325 33.216C19.5872 32.9772 19.4475 32.6528 19.4439 32.3133V24.4139C19.4325 24.2378 19.4579 24.0613 19.5186 23.8952C19.5793 23.7292 19.6741 23.5771 19.7969 23.4486C19.9197 23.32 20.068 23.2177 20.2327 23.1478C20.3974 23.0779 20.5748 23.042 20.7542 23.0424H21.0609C21.4084 23.0424 21.7417 23.1782 21.9874 23.42C22.2332 23.6618 22.3712 23.9897 22.3712 24.3316V32.2859C22.373 32.4563 22.3405 32.6254 22.2754 32.7834C22.2105 32.9414 22.1143 33.0851 21.9923 33.2064C21.8705 33.3275 21.7255 33.4236 21.5655 33.4893C21.4056 33.555 21.2342 33.5887 21.0609 33.5887H21.0469ZM25.6748 30.6401H25.3682C25.0206 30.6401 24.6874 30.5044 24.4416 30.2626C24.1959 30.0208 24.0579 29.6929 24.0579 29.351V27.3076C24.0615 26.968 24.2011 26.6437 24.4465 26.4049C24.6918 26.166 25.023 26.0321 25.3682 26.0321H25.6748C26.02 26.0321 26.3512 26.166 26.5965 26.4049C26.8418 26.6437 26.9815 26.968 26.9851 27.3076V29.351C26.9851 29.6906 26.8491 30.0164 26.6063 30.2578C26.3636 30.4992 26.0339 30.6366 25.6888 30.6401H25.6748Z" fill="#24282B"/>
</svg>
