<svg width="186" height="66" viewBox="0 0 186 66" fill="none" xmlns="http://www.w3.org/2000/svg">
<path d="M34.4729 29.25C38.0537 29.25 38.8593 30.8077 38.8593 32.7506C38.8593 34.81 37.8848 36.2854 34.4878 36.2854C31.1124 36.2854 30.1367 34.8957 30.1367 32.7506C30.1367 30.6397 31.2002 29.25 34.4729 29.25Z" fill="#24282B"/>
<path d="M71.8948 29.25C75.4756 29.25 76.2812 30.8077 76.2812 32.7506C76.2812 34.81 75.3056 36.2854 71.9096 36.2854C68.5354 36.2854 67.5586 34.8957 67.5586 32.7506C67.5586 30.6397 68.6221 29.25 71.8948 29.25Z" fill="#24282B"/>
<path fill-rule="evenodd" clip-rule="evenodd" d="M2.76953 53.0001V12.4824H183.724V53.0001H2.76953ZM89.012 50.7144H181.442V14.7681H89.012V50.7144ZM34.4902 39.735C40.8473 39.735 43.5198 36.9887 43.5198 32.6996C43.5198 28.3407 40.5095 25.7499 34.4902 25.7499C28.5633 25.7499 25.4436 28.5636 25.4436 32.6996C25.4436 37.367 28.7162 39.735 34.4902 39.735ZM12.3882 26.0584V39.5293H25.2188V35.9419H17.0302V26.0584H12.3882ZM57.8794 39.5293L57.7596 38.2241C56.2067 39.3341 54.3166 39.8683 52.4135 39.735C49.5528 39.735 47.1702 38.8767 45.8339 37.1441C44.9526 35.8792 44.5075 34.3608 44.5662 32.8196C44.5161 31.3106 44.9765 29.8291 45.8727 28.615C47.2249 26.9339 49.676 25.8184 53.3253 25.8184C57.5234 25.8184 59.9905 27.1053 61.0517 29.2676C61.2795 29.7768 61.4133 30.3231 61.4465 30.8801H57.0054C56.8934 30.5416 56.6852 30.2433 56.4063 30.0219C55.5216 29.4344 54.4651 29.1628 53.4075 29.2504C52.787 29.1751 52.1576 29.2325 51.561 29.4189C50.9645 29.6053 50.4141 29.9164 49.9465 30.3316C49.4154 31.0596 49.1661 31.9558 49.2447 32.8539C49.1831 33.7107 49.4123 34.5632 49.8951 35.2733C50.367 35.7136 50.9279 36.0471 51.5398 36.2515C52.1518 36.4557 52.8003 36.526 53.4417 36.4573C54.7155 36.5611 55.9802 36.1676 56.9711 35.359C57.1839 35.0925 57.3307 34.7791 57.399 34.4447H52.6201V31.5499H61.5629V39.5293H57.8794ZM71.9116 39.735C78.2675 39.735 80.9412 36.9887 80.9412 32.6996C80.9412 28.3407 77.9262 25.7499 71.9116 25.7499C65.9847 25.7499 62.8649 28.5636 62.8649 32.6996C62.8649 37.367 66.1376 39.735 71.9116 39.735Z" fill="#24282B"/>
<path d="M96.832 39.4787V26.0078H100.141V39.4787H96.832Z" fill="#24282B"/>
<path d="M117.134 33.8487C116.295 34.947 114.851 35.4487 112.817 35.4612C112.388 35.4612 106.699 35.4441 106.699 35.4441V39.4772H103.461V26.0064H112.818C113.568 25.927 114.327 26.0066 115.043 26.2401C115.761 26.4737 116.42 26.8559 116.981 27.3618C117.72 28.3266 118.08 29.5296 117.992 30.7424C118.067 31.8455 117.765 32.9414 117.134 33.8487ZM114.478 29.4567C114.136 28.9424 113.398 28.6567 112.148 28.6567H106.682V32.7572H112.113C113.449 32.7572 114.153 32.483 114.478 31.9504C114.671 31.5752 114.754 31.1527 114.718 30.7321C114.746 30.2935 114.664 29.8547 114.478 29.4567Z" fill="#24282B"/>
<path d="M127.534 39.6831C121.433 39.6831 119.566 37.3974 119.566 35.1356H123.027C123.027 36.2511 124.552 37.0922 127.688 37.0922C130.805 37.0922 131.628 36.5425 131.628 35.6499C131.628 34.6545 131.012 34.3459 128.116 34.0202C127.545 33.9688 125.992 33.7802 125.409 33.6945C121.301 33.2305 119.719 32.0122 119.719 29.8328C119.719 27.5334 122.033 25.8008 127.053 25.8008C132.502 25.8008 134.592 27.9459 134.592 30.1768H131.169C131.169 29.0442 129.884 28.3916 126.851 28.3916C123.733 28.3916 123.065 28.8202 123.065 29.6614C123.065 30.5368 123.75 30.8111 127.059 31.2054C127.813 31.3094 129.492 31.4979 129.954 31.5482C133.45 31.9082 135.026 33.1779 135.026 35.4259C135.02 38.1036 132.622 39.6831 127.534 39.6831Z" fill="#24282B"/>
<path d="M144.771 39.6672C140.3 39.6672 137.387 37.8992 137.387 34.1815V26.0078H140.658V34.2272C140.658 35.9267 142.047 37.0581 144.908 37.0581C147.495 37.0581 149.037 35.9952 149.037 34.2272V26.0078H152.276V34.4867C152.276 37.8661 149.568 39.6672 144.771 39.6672Z" fill="#24282B"/>
<path d="M170.008 39.4787V30.4867L165.81 39.4787H162.624L158.546 30.4867V39.4787H155.465V26.0078H159.639L164.265 36.2695L168.994 26.0078H173.102V39.4787H170.008Z" fill="#24282B"/>
</svg>
