<svg id="Layer_1" data-name="Layer 1" xmlns="http://www.w3.org/2000/svg" viewBox="0 0 528 184"><defs><style>.cls-1{fill:#fff;}</style></defs><path class="cls-1" d="M0,0H25.3L85.7,115.32,146.1,0h24.27V181.41H146.1V44.06L94.22,142.54H76.15L24.26,44.06V181.41H0Z"/><path class="cls-1" d="M237.83,184a60.19,60.19,0,0,1-20.13-3.11,44,44,0,0,1-14.46-9.07,37.88,37.88,0,0,1-9-13.48,45.68,45.68,0,0,1-3.1-17.1q0-20.48,11.88-29.54,12.12-9.08,34.59-9.07H282V93.3q0-17.62-8-24.36-7.74-6.75-23.49-6.74-14.72,0-21.42,5.7-6.72,5.44-7.49,12.44H198.86a35.68,35.68,0,0,1,4.38-15.29,41.51,41.51,0,0,1,10.85-12.44,52.65,52.65,0,0,1,16.52-8,68.13,68.13,0,0,1,21.16-3.11q24.27,0,38.47,11.67,14.44,11.4,14.45,37.57v74.9A157.48,157.48,0,0,0,306,181.41H286.11q-.78-6-1-11.15-.26-5.43-.25-12.17-5.43,10.88-17.56,18.4T237.83,184Zm4.91-20.73a52,52,0,0,0,15-2.08,41.6,41.6,0,0,0,12.65-6.47A30.87,30.87,0,0,0,282,129.58v-9.33H241.45q-12.64,0-19.88,5.18-7.23,4.92-7.23,15.81a20.61,20.61,0,0,0,6.72,15.81Q228,163.26,242.74,163.27Z"/><path class="cls-1" d="M326.74,44.06h21.17V70a44.81,44.81,0,0,1,14.46-20.21q10.32-8.3,25-8.3a53,53,0,0,1,8.26.52,44.54,44.54,0,0,1,5.93,1.3V64.53a32,32,0,0,0-6.71-1.81,55.91,55.91,0,0,0-8.77-.52,36.58,36.58,0,0,0-14.46,2.85,34.34,34.34,0,0,0-11.62,8,35,35,0,0,0-7.74,12.18,43.09,43.09,0,0,0-2.84,15.81v80.34H326.74Z"/><path class="cls-1" d="M409.26,0H432V107.29l63-63.23h27.88l-56.79,56.75L528,181.41H499.09l-49.3-64.79L432,133.46v47.95H409.26Z"/></svg>