<svg id="Layer_1" data-name="Layer 1" xmlns="http://www.w3.org/2000/svg" viewBox="0 0 709 184"><defs><style>.cls-1{fill:#fff;}</style></defs><path class="cls-1" d="M0,0H25.73L62.79,142.54,105,0H126.6l43,142.54L206.89,0h24.7L183.21,181.41H159L115.28,38.87,72.56,181.41H48.38Z"/><path class="cls-1" d="M288.18,184a74.8,74.8,0,0,1-25-4.15,57.34,57.34,0,0,1-20.84-12.7,64.27,64.27,0,0,1-14.41-22q-5.41-13.22-5.41-31.1v-5.18q0-17.11,5.15-29.55a60.83,60.83,0,0,1,13.64-21,56,56,0,0,1,20.07-12.7,71.31,71.31,0,0,1,24.19-4.15q30.11,0,46.57,16.59T348.65,105v14.51H245.21q0,12.18,3.86,20.47a38.5,38.5,0,0,0,10,13.48,39.18,39.18,0,0,0,13.64,7.51,53,53,0,0,0,15.44,2.34q15.44,0,23.67-5.18A28.8,28.8,0,0,0,324,143.83h22.13a45.15,45.15,0,0,1-7.47,17.36,47.4,47.4,0,0,1-12.86,12.7,58,58,0,0,1-17.24,7.52A77,77,0,0,1,288.18,184ZM286.89,62.2a51.36,51.36,0,0,0-15.44,2.33,35.52,35.52,0,0,0-22.64,18.92,38.69,38.69,0,0,0-3.6,17.36h82.08q-.26-10.62-3.6-17.88A29.49,29.49,0,0,0,315.2,71a32.77,32.77,0,0,0-12.87-6.74A55.67,55.67,0,0,0,286.89,62.2Z"/><path class="cls-1" d="M432.3,184q-17.51,0-30.36-7.77-12.87-8-18-20.74v25.92h-21.1V0h22.65V68.68a44.91,44.91,0,0,1,18-20q12.34-7.26,28.82-7.26,25.47,0,40.91,17.11,15.71,16.84,15.7,50.28V114q0,17.63-4.12,30.84a62.42,62.42,0,0,1-11.58,21.77,48.17,48.17,0,0,1-18,13A57.58,57.58,0,0,1,432.3,184Zm-5.15-20.21a38.58,38.58,0,0,0,15.44-3.11,35.28,35.28,0,0,0,12.35-9.59,41.86,41.86,0,0,0,8.24-15.55A68.4,68.4,0,0,0,466.27,114v-5.18a60.09,60.09,0,0,0-3.09-20,39.68,39.68,0,0,0-8.24-14.77,32.52,32.52,0,0,0-12.35-9.33,38.58,38.58,0,0,0-15.44-3.11,45.13,45.13,0,0,0-17,3.11,35.47,35.47,0,0,0-13.12,8.29,37.14,37.14,0,0,0-8.5,12.44,39.45,39.45,0,0,0-3.08,15.55V121.8a46.17,46.17,0,0,0,3.08,17.11,37.54,37.54,0,0,0,21.62,21.77A45.13,45.13,0,0,0,427.15,163.79Z"/><path class="cls-1" d="M559.73,184a74.8,74.8,0,0,1-25-4.15,57.34,57.34,0,0,1-20.84-12.7,64.41,64.41,0,0,1-14.41-22q-5.4-13.22-5.4-31.1v-5.18q0-17.11,5.14-29.55a60.83,60.83,0,0,1,13.64-21A56,56,0,0,1,533,45.61a71.35,71.35,0,0,1,24.19-4.15q30.11,0,46.58,16.59T620.2,105v14.51H516.76q0,12.18,3.86,20.47a38.4,38.4,0,0,0,10,13.48,39.05,39.05,0,0,0,13.63,7.51,53,53,0,0,0,15.44,2.34q15.45,0,23.68-5.18a28.78,28.78,0,0,0,12.09-14.26h22.13a45.14,45.14,0,0,1-7.46,17.36,47.29,47.29,0,0,1-12.87,12.7,57.86,57.86,0,0,1-17.24,7.52A77,77,0,0,1,559.73,184ZM558.45,62.2A51.26,51.26,0,0,0,543,64.53a35.36,35.36,0,0,0-13.38,7,35.84,35.84,0,0,0-9.27,11.92,38.69,38.69,0,0,0-3.6,17.36h82.09q-.27-10.62-3.61-17.88A29.49,29.49,0,0,0,586.75,71a32.8,32.8,0,0,0-12.86-6.74A55.72,55.72,0,0,0,558.45,62.2Z"/><path class="cls-1" d="M634.38,44.06h21.1V70a44.7,44.7,0,0,1,14.41-20.21q10.29-8.3,25-8.3a52.53,52.53,0,0,1,8.23.52,44.37,44.37,0,0,1,5.92,1.3V64.53a32,32,0,0,0-6.69-1.81,55.63,55.63,0,0,0-8.75-.52,36.37,36.37,0,0,0-14.41,2.85,34.18,34.18,0,0,0-11.58,8,35.13,35.13,0,0,0-7.72,12.18A43.3,43.3,0,0,0,657,101.07v80.34H634.38Z"/></svg>