<svg width="132" height="67" viewBox="0 0 132 67" fill="none" xmlns="http://www.w3.org/2000/svg">
<path d="M3.41406 38.7773H7.15352V57.0259H3.41406V38.7773Z" fill="#24282B"/>
<path d="M9.32061 50.7737C9.31814 49.463 9.70642 48.181 10.4363 47.0899C11.1662 45.9989 12.2049 45.1478 13.421 44.6445C14.637 44.1412 15.9757 44.0083 17.2677 44.2625C18.5597 44.5167 19.7469 45.1466 20.679 46.0727C21.6112 46.9986 22.2464 48.179 22.5042 49.4643C22.7621 50.7497 22.631 52.0823 22.1276 53.2936C21.6241 54.5047 20.771 55.54 19.6761 56.2685C18.5812 56.9971 17.2938 57.3858 15.9769 57.3858C15.1009 57.3958 14.232 57.2317 13.4207 56.903C12.6095 56.5745 11.8723 56.088 11.2523 55.4721C10.6324 54.8564 10.1422 54.1236 9.81052 53.3167C9.47881 52.5099 9.31226 51.6454 9.32061 50.7737ZM18.8686 50.7737C18.854 50.2079 18.6719 49.6589 18.3454 49.1955C18.0188 48.7321 17.5622 48.3749 17.0326 48.1683C16.503 47.9618 15.9241 47.9154 15.3682 48.0347C14.8122 48.154 14.304 48.4338 13.907 48.8391C13.5101 49.2444 13.242 49.7573 13.1363 50.3135C13.0306 50.8696 13.0921 51.4445 13.313 51.9661C13.534 52.4876 13.9045 52.9328 14.3782 53.2459C14.8521 53.559 15.4081 53.7261 15.9769 53.7262C16.3659 53.7371 16.753 53.6676 17.1138 53.522C17.4746 53.3765 17.8011 53.1581 18.0729 52.8807C18.3446 52.6032 18.5556 52.2728 18.6925 51.9102C18.8295 51.5475 18.8895 51.1606 18.8686 50.7737Z" fill="#24282B"/>
<path d="M37.6652 44.52V56.4045C37.6652 60.61 34.362 62.384 31.0215 62.384C29.8468 62.471 28.6707 62.2345 27.622 61.7006C26.5732 61.1667 25.6924 60.3559 25.0758 59.357L28.2917 57.5086C28.5469 58.0205 28.9507 58.4444 29.4507 58.7253C29.9507 59.0062 30.524 59.1312 31.0963 59.0841C31.4728 59.1466 31.8588 59.1222 32.2244 59.0126C32.59 58.9032 32.9255 58.7116 33.2049 58.4527C33.4842 58.1937 33.7002 57.8744 33.836 57.5193C33.9718 57.1642 34.0238 56.7828 33.9881 56.4045V55.2507C33.5485 55.7891 32.9875 56.2167 32.3509 56.499C31.7142 56.7814 31.0196 56.9105 30.3235 56.8759C28.6308 56.8759 27.0076 56.2067 25.8107 55.0156C24.6138 53.8244 23.9414 52.2088 23.9414 50.5242C23.9414 48.8396 24.6138 47.2241 25.8107 46.033C27.0076 44.8418 28.6308 44.1726 30.3235 44.1726C31.0192 44.141 31.7128 44.2714 32.349 44.5535C32.9853 44.8357 33.5465 45.2617 33.9881 45.7977V44.5571L37.6652 44.52ZM33.9881 50.5242C34.013 49.921 33.8559 49.324 33.5373 48.8101C33.2185 48.2963 32.7527 47.889 32.1996 47.6409C31.6465 47.3926 31.0314 47.3147 30.4334 47.4171C29.8355 47.5195 29.282 47.7976 28.8441 48.2155C28.4062 48.6335 28.1039 49.1723 27.9761 49.7625C27.8482 50.3528 27.9007 50.9677 28.1269 51.528C28.353 52.0885 28.7422 52.5686 29.2448 52.9071C29.7473 53.2456 30.34 53.4266 30.9466 53.4272C31.3428 53.455 31.7402 53.4001 32.1135 53.2657C32.487 53.1313 32.8279 52.9207 33.1145 52.6472C33.4009 52.3737 33.6268 52.0434 33.7773 51.6778C33.9277 51.3122 33.9995 50.9193 33.9881 50.5242Z" fill="#24282B"/>
<path d="M39.8206 50.7737C39.8181 49.463 40.2065 48.181 40.9363 47.0899C41.6662 45.9989 42.705 45.1478 43.9209 44.6445C45.1369 44.1412 46.4757 44.0083 47.7677 44.2625C49.0597 44.5167 50.2469 45.1466 51.1791 46.0727C52.1111 46.9986 52.7463 48.179 53.0042 49.4643C53.262 50.7497 53.131 52.0823 52.6275 53.2936C52.1241 54.5047 51.271 55.54 50.1762 56.2685C49.0812 56.9971 47.7938 57.3858 46.4768 57.3858C45.601 57.3958 44.7319 57.2317 43.9207 56.903C43.1094 56.5745 42.3722 56.088 41.7523 55.4721C41.1324 54.8564 40.6422 54.1236 40.3105 53.3167C39.9788 52.5099 39.8122 51.6454 39.8206 50.7737ZM49.3687 50.7737C49.3539 50.2079 49.1719 49.6589 48.8453 49.1955C48.5188 48.7321 48.0622 48.3749 47.5326 48.1683C47.0031 47.9618 46.4242 47.9154 45.8682 48.0347C45.3122 48.154 44.804 48.4338 44.407 48.8391C44.01 49.2444 43.7419 49.7573 43.6362 50.3135C43.5306 50.8696 43.5921 51.4445 43.813 51.9661C44.0339 52.4876 44.4045 52.9328 44.8782 53.2459C45.3521 53.559 45.9081 53.7261 46.4768 53.7262C46.8639 53.7335 47.2483 53.6616 47.6061 53.5144C47.9638 53.3673 48.2874 53.1484 48.5564 52.8713C48.8254 52.5944 49.0341 52.2651 49.1696 51.9042C49.3051 51.5433 49.3644 51.1584 49.3438 50.7737H49.3687Z" fill="#24282B"/>
<path d="M54.8672 41.1699C54.8672 40.7234 55.0002 40.2868 55.2495 39.9156C55.4988 39.5443 55.8531 39.2549 56.2676 39.084C56.6822 38.9131 57.1382 38.8684 57.5783 38.9555C58.0184 39.0426 58.4226 39.2576 58.7399 39.5733C59.0573 39.8892 59.2732 40.2914 59.3607 40.7294C59.4484 41.1674 59.4034 41.6214 59.2318 42.0339C59.06 42.4465 58.7692 42.7992 58.3962 43.0472C58.023 43.2953 57.5845 43.4277 57.1357 43.4277C56.5351 43.4245 55.96 43.1856 55.5352 42.7628C55.1105 42.3402 54.8705 41.7678 54.8672 41.1699ZM55.2535 44.5194H58.993V57.0242H55.2535V44.5194Z" fill="#24282B"/>
<path d="M75.2986 50.7732C75.3439 51.5998 75.2246 52.4272 74.9474 53.2076C74.6701 53.9881 74.2405 54.7063 73.6832 55.3209C73.1259 55.9355 72.4521 56.4343 71.7003 56.7886C70.9486 57.1429 70.1339 57.3457 69.3031 57.3854C68.6056 57.4187 67.9092 57.2994 67.2631 57.0357C66.617 56.772 66.0369 56.3706 65.5636 55.8595V62.0623H61.8242V44.5208H65.5636V45.6993C66.0369 45.1883 66.617 44.7868 67.2631 44.5231C67.9092 44.2595 68.6056 44.1402 69.3031 44.1734C70.1328 44.2131 70.9465 44.4155 71.6973 44.7691C72.4482 45.1227 73.1216 45.6204 73.6786 46.2336C74.2358 46.8468 74.6656 47.5635 74.9436 48.3425C75.2217 49.1216 75.3423 49.9476 75.2986 50.7732ZM71.5592 50.7732C71.5444 50.1909 71.3583 49.6258 71.024 49.1477C70.6896 48.6698 70.2218 48.2997 69.6784 48.0837C69.1349 47.8676 68.5396 47.8149 67.9664 47.9322C67.3932 48.0494 66.867 48.3315 66.4532 48.7433C66.0394 49.1552 65.7561 49.6787 65.6382 50.2493C65.5205 50.8198 65.5734 51.4122 65.7904 51.953C66.0076 52.4939 66.3793 52.9596 66.8596 53.2922C67.34 53.625 67.9078 53.8102 68.4929 53.825C68.9011 53.8508 69.3102 53.7894 69.6927 53.6449C70.0751 53.5002 70.422 53.2758 70.7102 52.9868C70.9982 52.6977 71.2209 52.3506 71.3631 51.9688C71.5051 51.587 71.5636 51.1794 71.5343 50.7732H71.5592Z" fill="#24282B"/>
<path d="M86.9411 53.2795C86.9411 56.1576 84.4481 57.3856 81.7058 57.3856C80.6103 57.4822 79.5109 57.2502 78.549 56.7196C77.5873 56.189 76.8069 55.3841 76.3086 54.4083L79.5744 52.5599C79.7069 53.0112 79.9907 53.4037 80.3784 53.6723C80.7662 53.9408 81.2346 54.0693 81.7058 54.0362C82.6158 54.0362 83.0645 53.7508 83.0645 53.2546C83.0645 51.8776 76.8321 52.6096 76.8321 48.2924C76.8321 45.5632 79.1505 44.1861 81.818 44.1861C82.8023 44.1564 83.7768 44.3891 84.6403 44.8603C85.5038 45.3314 86.225 46.0239 86.7292 46.8657L83.451 48.5778C83.3062 48.2501 83.0688 47.9714 82.7679 47.7753C82.4669 47.5793 82.1154 47.4745 81.7557 47.4736C81.1076 47.4736 80.7087 47.7218 80.7087 48.1808C80.7586 49.6073 86.9411 48.6521 86.9411 53.2795Z" fill="#24282B"/>
<path d="M100.701 44.5195V57.0244H96.9609V55.8583C96.526 56.3764 95.974 56.7847 95.35 57.05C94.7262 57.3152 94.048 57.4296 93.3711 57.3842C90.8781 57.3842 88.6719 55.5853 88.6719 52.1986V44.5195H92.4113V51.6528C92.3784 51.9568 92.4141 52.2642 92.5155 52.5528C92.6168 52.8415 92.7814 53.1039 92.9975 53.3214C93.2135 53.5388 93.4755 53.7055 93.7643 53.8095C94.0531 53.9137 94.3617 53.9523 94.6674 53.923C96.0387 53.923 96.9984 53.129 96.9984 51.3551V44.5195H100.701Z" fill="#24282B"/>
<path d="M122.314 49.3578V57.0244H118.575V49.6804C118.575 48.4399 117.964 47.621 116.767 47.621C115.571 47.621 114.798 48.5019 114.798 49.9781V57.0244H111.058V49.6804C111.058 48.4399 110.46 47.621 109.251 47.621C108.042 47.621 107.294 48.5019 107.294 49.9781V57.0244H103.555V44.5197H107.294V45.6734C107.685 45.1638 108.198 44.7596 108.785 44.4975C109.373 44.2353 110.017 44.1235 110.66 44.1724C111.305 44.1411 111.947 44.2768 112.523 44.5658C113.1 44.855 113.592 45.2879 113.95 45.8223C114.367 45.2636 114.92 44.8191 115.557 44.5306C116.193 44.2421 116.893 44.1188 117.59 44.1724C120.432 44.1724 122.314 46.2316 122.314 49.3578Z" fill="#24282B"/>
<path d="M125.507 44.4464C127.049 44.4464 128.299 43.2022 128.299 41.6675C128.299 40.1328 127.049 38.8887 125.507 38.8887C123.965 38.8887 122.715 40.1328 122.715 41.6675C122.715 43.2022 123.965 44.4464 125.507 44.4464Z" fill="#24282B"/>
<path d="M45.7319 29.3121C52.9534 29.3121 58.8074 23.4857 58.8074 16.2986C58.8074 9.11147 52.9534 3.28516 45.7319 3.28516C38.5104 3.28516 32.6562 9.11147 32.6562 16.2986C32.6562 23.4857 38.5104 29.3121 45.7319 29.3121Z" fill="#24282B"/>
<path d="M74.9585 29.3121C82.1799 29.3121 88.034 23.4857 88.034 16.2986C88.034 9.11147 82.1799 3.28516 74.9585 3.28516C67.737 3.28516 61.8828 9.11147 61.8828 16.2986C61.8828 23.4857 67.737 29.3121 74.9585 29.3121Z" fill="#24282B"/>
<path d="M29.5762 3.28516H3.4375V29.2996H29.5762V3.28516Z" fill="#24282B"/>
</svg>
