<svg width="184" height="65" viewBox="0 0 184 65" fill="none" xmlns="http://www.w3.org/2000/svg">
<path d="M54.7109 24.1045H59.1626V42.2995H54.7109V24.1045ZM60.9284 35.4295C60.9284 30.9295 63.6587 28.2445 67.8729 28.2445C72.0871 28.2445 74.8174 30.9295 74.8174 35.4295C74.8174 39.9295 72.1464 42.6295 67.8729 42.6295C63.5993 42.6295 60.9284 40.0045 60.9284 35.4295ZM70.3509 35.4295C70.3509 32.9545 69.3864 31.4995 67.8729 31.4995C66.3593 31.4995 65.4097 32.9995 65.4097 35.4295C65.4097 37.8595 66.3445 39.3295 67.8729 39.3295C69.4013 39.3295 70.3509 37.9495 70.3509 35.4445V35.4295ZM76.4942 43.1845H80.7677C80.9712 43.6413 81.315 44.0194 81.7481 44.2627C82.1812 44.5059 82.6806 44.6013 83.1716 44.5345C84.8632 44.5345 85.7535 43.6045 85.7535 42.2545V39.7345H85.6645C85.3098 40.5069 84.7343 41.154 84.0122 41.5926C83.2901 42.031 82.4546 42.2407 81.6135 42.1945C78.3638 42.1945 76.2122 39.6895 76.2122 35.3845C76.2122 31.0795 78.26 28.3645 81.6729 28.3645C82.5403 28.3302 83.3974 28.5646 84.1294 29.0364C84.8614 29.5083 85.4333 30.195 85.7684 31.0045V28.4995H90.22V42.1495C90.22 45.4345 87.3561 47.4745 83.1271 47.4745C79.1948 47.4745 76.7464 45.6895 76.4942 43.1995V43.1845ZM85.7684 35.4145C85.7684 33.2245 84.7742 31.8445 83.2013 31.8445C81.6284 31.8445 80.6638 33.2095 80.6638 35.4145C80.6638 37.6195 81.6135 38.8645 83.2013 38.8645C84.789 38.8645 85.7684 37.6495 85.7684 35.4295V35.4145ZM91.8967 35.4145C91.8967 30.9145 94.6271 28.2295 98.8413 28.2295C103.055 28.2295 105.801 30.9145 105.801 35.4145C105.801 39.9145 103.13 42.6145 98.8413 42.6145C94.5529 42.6145 91.8967 40.0045 91.8967 35.4295V35.4145ZM101.319 35.4145C101.319 32.9395 100.355 31.4845 98.8413 31.4845C97.3277 31.4845 96.4522 32.9995 96.4522 35.4445C96.4522 37.8895 97.3871 39.3445 98.9006 39.3445C100.414 39.3445 101.319 37.9495 101.319 35.4445V35.4145ZM107.492 25.2295C107.481 24.7752 107.603 24.3276 107.843 23.9435C108.083 23.5593 108.431 23.2559 108.842 23.0718C109.253 22.8877 109.709 22.831 110.152 22.9091C110.595 22.9872 111.005 23.1965 111.33 23.5104C111.655 23.8243 111.881 24.2287 111.978 24.6724C112.076 25.1161 112.041 25.579 111.877 26.0026C111.714 26.4261 111.43 26.7912 111.062 27.0514C110.693 27.3117 110.257 27.4555 109.807 27.4645C109.509 27.4852 109.21 27.4434 108.929 27.3417C108.648 27.24 108.39 27.0807 108.173 26.8735C107.955 26.6665 107.783 26.4162 107.666 26.1384C107.548 25.8607 107.489 25.5615 107.492 25.2595V25.2295ZM107.492 28.5295H111.944V42.2995H107.492V28.5295ZM128.103 35.4145C128.103 39.9145 126.13 42.4795 122.746 42.4795C121.879 42.5358 121.015 42.3214 120.272 41.8654C119.529 41.4093 118.942 40.7335 118.592 39.9295H118.503V46.7095H114.051V28.4995H118.503V30.9595H118.592C118.926 30.1422 119.502 29.4489 120.24 28.9738C120.978 28.4988 121.843 28.2651 122.717 28.3045C126.13 28.3645 128.163 30.9445 128.163 35.4445L128.103 35.4145ZM123.652 35.4145C123.652 33.2245 122.657 31.8295 121.099 31.8295C119.541 31.8295 118.547 33.2395 118.532 35.4145C118.517 37.5895 119.541 38.9845 121.099 38.9845C122.657 38.9845 123.652 37.6195 123.652 35.4445V35.4145ZM135.745 28.2145C139.44 28.2145 141.681 29.9845 141.785 32.8195H137.734C137.734 31.8445 136.932 31.2295 135.701 31.2295C134.469 31.2295 133.92 31.7095 133.92 32.4145C133.92 33.1195 134.41 33.3445 135.404 33.5545L138.253 34.1395C140.968 34.7245 142.126 35.8345 142.126 37.9195C142.126 40.7695 139.559 42.5995 135.775 42.5995C131.991 42.5995 129.513 40.7695 129.32 37.9645H133.608C133.742 38.9845 134.543 39.5845 135.849 39.5845C137.155 39.5845 137.748 39.1495 137.748 38.4295C137.748 37.7095 137.333 37.5595 136.264 37.3345L133.697 36.7795C131.041 36.2245 129.646 34.7995 129.646 32.6995C129.676 29.9995 132.065 28.2445 135.745 28.2445V28.2145ZM156.979 42.2695H152.691V39.7045H152.602C152.366 40.5657 151.847 41.3194 151.128 41.8407C150.41 42.3618 149.538 42.619 148.655 42.5695C147.978 42.6084 147.302 42.5001 146.67 42.2518C146.039 42.0036 145.468 41.6214 144.995 41.1307C144.523 40.6402 144.159 40.0527 143.931 39.4081C143.702 38.7636 143.613 38.0769 143.669 37.3945V28.4995H148.121V36.3595C148.121 37.9945 148.952 38.8645 150.332 38.8645C150.655 38.8651 150.976 38.796 151.271 38.6614C151.565 38.5269 151.829 38.3301 152.042 38.0844C152.255 37.8385 152.415 37.5495 152.508 37.2366C152.602 36.9235 152.63 36.5938 152.587 36.2695V28.4995H157.039L156.979 42.2695ZM159.131 28.4995H163.434V31.1545H163.523C163.759 30.3048 164.268 29.5581 164.968 29.0316C165.669 28.5051 166.524 28.2282 167.396 28.2445C168.285 28.1727 169.166 28.4413 169.868 28.9972C170.569 29.5531 171.038 30.3553 171.18 31.2445H171.269C171.538 30.3459 172.096 29.5635 172.854 29.0203C173.611 28.4772 174.526 28.2042 175.454 28.2445C176.059 28.224 176.661 28.3324 177.222 28.5628C177.785 28.7931 178.291 29.1403 178.711 29.5816C179.131 30.0231 179.454 30.5488 179.66 31.1247C179.865 31.7005 179.95 32.3139 179.905 32.9245V42.2995H175.454V34.1245C175.454 32.6245 174.786 31.9345 173.539 31.9345C173.262 31.9321 172.986 31.99 172.732 32.1043C172.478 32.2186 172.251 32.3866 172.067 32.5971C171.883 32.8075 171.745 33.0553 171.664 33.324C171.582 33.5928 171.56 33.876 171.595 34.1545V42.2995H167.366V34.0645C167.366 32.6845 166.699 31.9345 165.482 31.9345C165.201 31.9347 164.922 31.995 164.667 32.1115C164.411 32.2282 164.181 32.3985 163.995 32.611C163.808 32.8236 163.669 33.0738 163.584 33.3451C163.501 33.6163 163.474 33.9024 163.508 34.1845V42.2995H159.057L159.131 28.4995Z" fill="#24282B"/>
<path d="M42.2618 24.9313C41.5067 23.1858 40.5073 21.5592 39.2941 20.1013C37.5008 17.8818 35.2629 16.0714 32.7275 14.7892C30.1922 13.507 27.4169 12.7822 24.5845 12.6623C21.7521 12.5424 18.9266 13.0303 16.2941 14.0938C13.6617 15.1573 11.2818 16.7723 9.31128 18.8325C7.34073 20.8927 5.82414 23.3514 4.86133 26.0469C3.89852 28.7422 3.51131 31.6132 3.72519 34.4707C3.93909 37.3284 4.74921 40.1077 6.10226 42.6259C7.45532 45.1443 9.32062 47.3443 11.5754 49.0813C13.0222 50.2182 14.6208 51.1423 16.3238 51.8263C18.7113 52.8154 21.2667 53.3248 23.847 53.3263C29.1732 53.3145 34.2774 51.1683 38.041 47.3583C41.8043 43.5483 43.9199 38.3854 43.9238 33.0013C43.9276 30.2241 43.3618 27.4762 42.2618 24.9313ZM23.8321 16.7863C26.1494 16.786 28.4385 17.298 30.5392 18.2863C30.027 18.51 29.4884 18.6663 28.9367 18.7513C27.1213 19.0169 25.4396 19.8689 24.1426 21.1801C22.8455 22.4912 22.0027 24.1912 21.7399 26.0263C21.6246 27.0555 21.1615 28.0129 20.4289 28.7371C19.6963 29.4613 18.7391 29.9077 17.7186 30.0013C15.9032 30.267 14.2215 31.119 12.9245 32.4301C11.6274 33.7413 10.7846 35.4412 10.5218 37.2763C10.4329 38.2549 10.0198 39.1746 9.34958 39.8863C8.19313 37.4163 7.67362 34.6905 7.8394 31.9629C8.00518 29.2353 8.85085 26.5944 10.2977 24.2859C11.7446 21.9775 13.7457 20.0766 16.1147 18.7601C18.4837 17.4436 21.1437 16.7543 23.847 16.7563L23.8321 16.7863ZM11.5605 43.5013C11.7386 43.3363 11.9167 43.1863 12.0947 43.0063C13.4149 41.7126 14.2622 40.0047 14.4986 38.1613C14.5944 37.1251 15.0521 36.1573 15.7896 35.4313C16.4993 34.6846 17.4545 34.2258 18.4754 34.1413C20.2907 33.8757 21.9724 33.0237 23.2695 31.7125C24.5665 30.4014 25.4094 28.7014 25.6721 26.8663C25.7364 25.7826 26.1964 24.7615 26.9631 24.0013C27.6904 23.2691 28.6546 22.827 29.6786 22.7563C31.3463 22.5243 32.9017 21.7749 34.1302 20.6113C35.5291 21.7844 36.7141 23.1956 37.6321 24.7813C37.5758 24.8583 37.5111 24.9288 37.4392 24.9913C36.731 25.7446 35.777 26.2135 34.7534 26.3113C32.9361 26.5723 31.2519 27.4228 29.954 28.7347C28.6562 30.0468 27.8149 31.7493 27.5567 33.5863C27.452 34.6189 26.9975 35.5833 26.2701 36.3159C25.5426 37.0486 24.587 37.5045 23.5651 37.6063C21.7443 37.8699 20.0564 38.7202 18.7518 40.0308C17.4473 41.3415 16.5958 43.0425 16.3238 44.8813C16.2439 45.6144 15.9948 46.3183 15.5967 46.9363C14.0742 46.0225 12.7107 44.8621 11.5605 43.5013ZM23.8321 49.2913C22.3265 49.293 20.8279 49.0809 19.3805 48.6613C19.8757 47.7283 20.1976 46.7115 20.3302 45.6613C20.4342 44.631 20.8867 43.6684 21.6111 42.9361C22.3355 42.2038 23.2877 41.7465 24.307 41.6413C26.125 41.3787 27.8101 40.528 29.1101 39.2166C30.41 37.9053 31.2551 36.2035 31.5186 34.3663C31.6226 33.336 32.0751 32.3734 32.7995 31.6411C33.5239 30.9088 34.4761 30.4515 35.4954 30.3463C36.8635 30.1665 38.1675 29.6515 39.2941 28.8463C39.9197 31.2432 39.9937 33.753 39.5107 36.1833C39.0277 38.6136 38.0003 40.8999 36.5075 42.8665C35.0147 44.833 33.0962 46.428 30.8989 47.5287C28.7018 48.6294 26.2844 49.2067 23.8321 49.2163V49.2913Z" fill="#24282B"/>
</svg>
