<svg width="177" height="65" viewBox="0 0 177 65" fill="none" xmlns="http://www.w3.org/2000/svg">
<path d="M33.7422 21.8057H36.3028V39.9017H43.9846V42.5017H33.7422V21.8057ZM51.9609 21.8057C53.4802 21.8057 54.9654 22.2632 56.2287 23.1203C57.4919 23.9774 58.4766 25.1955 59.058 26.6208C59.6394 28.0461 59.7915 29.6144 59.4951 31.1274C59.1987 32.6404 58.4671 34.0303 57.3927 35.1211C56.3184 36.2121 54.9496 36.9549 53.4595 37.2558C51.9695 37.5568 50.4249 37.4023 49.0212 36.812C47.6175 36.2215 46.4178 35.2218 45.5737 33.9391C44.7296 32.6564 44.2791 31.1484 44.2791 29.6057C44.2791 28.5814 44.4778 27.5671 44.8638 26.6208C45.2498 25.6744 45.8157 24.8146 46.5291 24.0903C47.2423 23.366 48.0891 22.7914 49.0212 22.3994C49.9531 22.0075 50.9521 21.8057 51.9609 21.8057ZM51.9609 34.8057C52.9737 34.8057 53.9639 34.5007 54.8061 33.9294C55.6483 33.3579 56.3047 32.5458 56.6923 31.5956C57.0799 30.6455 57.1813 29.6 56.9837 28.5912C56.7861 27.5825 56.2983 26.656 55.5821 25.9288C54.8659 25.2016 53.9534 24.7063 52.96 24.5057C51.9665 24.305 50.9369 24.4079 50.0011 24.8016C49.0654 25.1951 48.2654 25.8616 47.7027 26.7167C47.14 27.5719 46.8397 28.5773 46.8397 29.6057C46.8465 30.9803 47.3889 32.2963 48.3487 33.2659C49.3084 34.2354 50.6071 34.7797 51.9609 34.7797V34.8057ZM46.8397 39.9277H57.0821V42.5277H46.8397V39.9277ZM79.6154 42.5277H77.0548V40.6687C75.4035 41.8424 73.4372 42.4731 71.4215 42.4757C69.7027 42.4874 68.0086 42.0597 66.4954 41.232C64.9821 40.4042 63.6983 39.2031 62.7624 37.7393C61.8264 36.2755 61.2682 34.596 61.1394 32.8556C61.0105 31.1153 61.3151 29.3699 62.025 27.7805C62.7349 26.191 63.8274 24.8085 65.2017 23.7604C66.5761 22.7122 68.1881 22.032 69.8892 21.7827C71.5905 21.5332 73.3262 21.7226 74.9363 22.3333C76.5466 22.9439 77.9796 23.956 79.1033 25.2767L77.2213 26.9797C76.3665 26.0094 75.2864 25.2718 74.0789 24.8341C72.8716 24.3962 71.5755 24.2722 70.3089 24.4733C69.0422 24.6744 67.8454 25.1943 66.8271 25.9853C65.809 26.7765 65.0021 27.8137 64.48 29.0026C63.9577 30.1915 63.7369 31.4941 63.8375 32.7919C63.9381 34.0897 64.3569 35.3412 65.056 36.4324C65.755 37.5236 66.7118 38.42 67.8393 39.0396C68.9668 39.6591 70.2292 39.9823 71.5111 39.9797C72.5751 39.9819 73.627 39.7508 74.5949 39.302C75.5626 38.8533 76.4236 38.1975 77.1189 37.3797H70.2052V34.7797H79.6411L79.6154 42.5277ZM89.0385 21.8577C90.5578 21.8577 92.043 22.3152 93.3062 23.1723C94.5695 24.0294 95.5542 25.2475 96.1356 26.6728C96.717 28.0981 96.8691 29.6664 96.5727 31.1794C96.2763 32.6924 95.5447 34.0823 94.4703 35.1731C93.396 36.2641 92.0272 37.0069 90.5371 37.3078C89.0471 37.6088 87.5025 37.4543 86.0988 36.864C84.695 36.2736 83.4954 35.2738 82.6513 33.9911C81.8072 32.7084 81.3567 31.2004 81.3567 29.6577C81.3499 28.6268 81.5445 27.6049 81.9291 26.6508C82.3137 25.6967 82.8807 24.8295 83.5974 24.0994C84.3142 23.3692 85.1663 22.7906 86.1047 22.3968C87.043 22.0032 88.0488 21.8022 89.0641 21.8057L89.0385 21.8577ZM89.0385 34.8577C90.0513 34.8577 91.0415 34.5527 91.8837 33.9814C92.7259 33.4099 93.3823 32.5978 93.7698 31.6476C94.1575 30.6975 94.2589 29.652 94.0612 28.6432C93.8637 27.6345 93.3759 26.708 92.6597 25.9808C91.9435 25.2536 91.031 24.7583 90.0376 24.5577C89.0441 24.357 88.0145 24.4599 87.0787 24.8536C86.1429 25.2471 85.343 25.9136 84.7803 26.7687C84.2176 27.6239 83.9173 28.6293 83.9173 29.6577C83.9375 31.0278 84.4894 32.3344 85.4532 33.2936C86.4169 34.2526 87.7146 34.7867 89.0641 34.7797L89.0385 34.8577ZM83.9173 39.9797H94.1597V42.5797H83.9173V39.9797ZM99.4473 21.8057H102.008V42.4757H99.4473V21.8057ZM105.554 21.8057H108.115C108.247 21.7915 108.38 21.7915 108.512 21.8057C109.584 21.6875 110.669 21.8001 111.696 22.1359C112.723 22.4718 113.668 23.0234 114.471 23.7549C115.274 24.4864 115.916 25.3815 116.355 26.3817C116.795 27.3819 117.022 28.465 117.022 29.5602C117.022 30.6555 116.795 31.7385 116.355 32.7387C115.916 33.7389 115.274 34.634 114.471 35.3655C113.668 36.097 112.723 36.6486 111.696 36.9845C110.669 37.3203 109.584 37.4329 108.512 37.3147H108.115V42.5147H105.554V21.8057ZM108.115 24.4057V34.6887H108.512C109.235 34.7865 109.971 34.7263 110.669 34.5119C111.367 34.2977 112.013 33.9343 112.562 33.4463C113.111 32.9583 113.55 32.3568 113.852 31.6821C114.153 31.0074 114.309 30.2751 114.309 29.5342C114.309 28.7933 114.153 28.0611 113.852 27.3864C113.55 26.7117 113.111 26.1101 112.562 25.6221C112.013 25.134 111.367 24.7708 110.669 24.5564C109.971 24.3421 109.235 24.282 108.512 24.3797C108.372 24.3944 108.235 24.425 108.102 24.4707L108.115 24.4057ZM126.564 23.3007L124.669 24.8217C124.342 24.4749 123.925 24.23 123.466 24.1158C123.006 24.0017 122.525 24.023 122.077 24.1773C121.629 24.3315 121.234 24.6123 120.938 24.9867C120.642 25.3611 120.457 25.8135 120.406 26.2907V26.4987C120.406 27.6427 121.187 28.4097 122.71 28.5137C128.574 28.8777 131.263 31.6727 131.263 35.3647V35.5987C131.111 37.0599 130.55 38.4462 129.645 39.5928C128.74 40.7394 127.53 41.5978 126.158 42.0662C124.787 42.5345 123.312 42.593 121.908 42.2346C120.505 41.8763 119.232 41.1162 118.242 40.0447L120.201 38.5107C120.657 39.0069 121.214 39.3964 121.833 39.6524C122.452 39.9082 123.118 40.0244 123.786 39.9927C125.019 40.0588 126.23 39.6385 127.165 38.8196C128.1 38.0009 128.688 36.8468 128.805 35.5987V35.4167C128.805 31.9457 125.45 31.3087 122.544 31.0227C119.855 30.7627 117.922 29.0597 117.922 26.6027V26.4987C118.017 25.2195 118.592 24.0261 119.528 23.165C120.464 22.3037 121.691 21.8404 122.954 21.8707C123.623 21.8507 124.289 21.9733 124.909 22.2308C125.528 22.4883 126.088 22.875 126.551 23.3657L126.564 23.3007ZM141.288 39.8367C144.476 39.8367 146.998 36.3397 146.998 32.0367V21.6367H149.558V32.0367C149.558 37.7567 145.871 42.3717 141.339 42.3717C136.807 42.3717 133.119 37.7567 133.119 32.0367V21.6367H135.68V32.0367C135.577 36.4047 138.1 39.9017 141.275 39.9017L141.288 39.8367ZM169.211 42.4367H166.65V29.5667L160.748 37.3667L154.846 29.5667V42.4757H152.285V21.8057L160.735 33.1027L169.185 21.8057L169.211 42.4367Z" fill="#24282B"/>
<path d="M21.4492 18.7009C21.4492 16.8253 20.7155 15.0265 19.4093 13.7002C18.1032 12.374 16.3316 11.6289 14.4844 11.6289C12.6372 11.6289 10.8657 12.374 9.55949 13.7002C8.25332 15.0265 7.51953 16.8253 7.51953 18.7009V40.0859L13.2553 44.2589V54.4249H15.7135V44.2589L21.4492 40.0859V18.7009ZM18.991 30.6609L15.7135 33.9889V30.8689L18.991 27.5409V30.6609ZM10.0289 27.5409L13.3065 30.8689V33.9889L10.0289 30.6609V27.5409ZM18.991 24.0049L14.4844 28.5809L9.97771 23.9009V20.7809L14.4844 25.3569L18.991 20.7809V24.0049ZM14.4844 14.1249C15.4755 14.1294 16.4379 14.4636 17.2241 15.0764C18.0103 15.6892 18.577 16.5468 18.8374 17.5179L14.4844 21.9249L10.1313 17.5179C10.3822 16.5372 10.9448 15.6679 11.7319 15.0451C12.519 14.4222 13.4865 14.0804 14.4844 14.0729V14.1249ZM9.97771 38.8249V34.1449L13.2553 37.4729V41.1909L9.97771 38.8249ZM15.7135 41.2039V37.4729L18.991 34.1449V38.8119L15.7135 41.2039Z" fill="#24282B"/>
</svg>
