<svg width="183" height="64" viewBox="0 0 183 64" fill="none" xmlns="http://www.w3.org/2000/svg">
<path d="M62.1523 41.2872C61.3277 41.3325 60.5121 41.0957 59.837 40.6153C59.5551 40.4041 59.3281 40.1268 59.1759 39.8073C59.0237 39.4877 58.9509 39.1356 58.9636 38.7812V25.8033C58.957 25.7484 58.9627 25.6925 58.9805 25.6402C58.9983 25.5878 59.0277 25.5403 59.0665 25.5011C59.1053 25.4619 59.1523 25.4323 59.2042 25.4143C59.256 25.3963 59.3113 25.3905 59.3657 25.3973H61.6948C61.9582 25.3973 62.083 25.5373 62.083 25.8033V37.7733C62.083 38.3053 62.3186 38.5712 62.8039 38.5712C63.0096 38.5798 63.2153 38.5563 63.4139 38.5013C63.6911 38.5013 63.8436 38.5852 63.8575 38.8373L64.0655 40.5872C64.0754 40.6383 64.0745 40.6908 64.0627 40.7415C64.0509 40.7921 64.0284 40.8397 63.9968 40.8807C63.9654 40.9219 63.9254 40.9557 63.88 40.98C63.8343 41.0042 63.7842 41.0183 63.7327 41.0212C63.2225 41.1915 62.6895 41.2812 62.1523 41.2872Z" fill="#24282B"/>
<path d="M75.252 39.7886C74.0818 40.7651 72.611 41.2992 71.0929 41.2992C69.5748 41.2992 68.1042 40.7651 66.9338 39.7886C65.9053 38.74 65.3281 37.3237 65.3281 35.8476C65.3281 34.3716 65.9053 32.9552 66.9338 31.9066C68.1064 30.9352 69.5762 30.4043 71.0929 30.4043C72.6096 30.4043 74.0794 30.9352 75.252 31.9066C76.257 32.9649 76.818 34.3744 76.818 35.8406C76.818 37.3069 76.257 38.7164 75.252 39.7746V39.7886ZM69.1243 37.9406C69.6674 38.4375 70.3739 38.7126 71.1068 38.7126C71.8396 38.7126 72.5462 38.4375 73.0893 37.9406C73.5809 37.37 73.8515 36.6391 73.8515 35.8826C73.8515 35.1264 73.5809 34.3954 73.0893 33.8246C72.5462 33.3279 71.8396 33.0527 71.1068 33.0527C70.3739 33.0527 69.6674 33.3279 69.1243 33.8246C68.6328 34.3954 68.362 35.1264 68.362 35.8826C68.362 36.6391 68.6328 37.37 69.1243 37.9406Z" fill="#24282B"/>
<path d="M89.6418 30.7591C89.9052 30.7591 90.03 30.8991 90.03 31.1651V41.2031C90.0543 41.8807 89.9286 42.5551 89.6625 43.1774C89.3963 43.7998 88.9962 44.3545 88.4911 44.8011C87.3701 45.7664 85.9286 46.2666 84.4568 46.2011C83.1276 46.2483 81.8159 45.8817 80.6998 45.1511C80.2231 44.8351 79.816 44.4234 79.5036 43.9418C79.1911 43.46 78.9801 42.9186 78.8836 42.3511C78.8836 42.0711 78.8836 41.9451 79.2579 41.9451H81.587C81.6859 41.9484 81.7818 41.9808 81.8629 42.0379C81.9442 42.095 82.0072 42.1745 82.0445 42.2671C82.1957 42.6923 82.4968 43.0463 82.8902 43.2611C83.3698 43.511 83.9035 43.6361 84.443 43.6251C84.7685 43.6431 85.0943 43.5954 85.4013 43.4848C85.7084 43.3743 85.9906 43.203 86.2314 42.9811C86.4514 42.749 86.6225 42.4741 86.7345 42.1734C86.8465 41.8727 86.897 41.5521 86.8829 41.2311V40.3491C86.0491 40.9684 85.0341 41.2888 83.9993 41.2591C83.2751 41.2857 82.5531 41.1643 81.8764 40.9021C81.1998 40.6397 80.5828 40.2423 80.062 39.7331C79.0626 38.689 78.5039 37.2934 78.5039 35.8411C78.5039 34.3889 79.0626 32.9933 80.062 31.9491C80.5853 31.4445 81.2032 31.0508 81.8793 30.7911C82.5556 30.5314 83.2763 30.411 83.9993 30.4371C85.064 30.4087 86.1063 30.7497 86.9523 31.4031V31.1791C86.9459 31.1255 86.9514 31.071 86.9685 31.0198C86.9855 30.9687 87.0137 30.9219 87.0508 30.883C87.088 30.844 87.1333 30.8141 87.1834 30.7951C87.2336 30.776 87.2872 30.7686 87.3405 30.7731L89.6418 30.7591ZM84.2627 38.7671C84.6198 38.7783 84.9752 38.7101 85.3033 38.5673C85.6315 38.4246 85.9247 38.2109 86.162 37.9411C86.623 37.3401 86.8731 36.6013 86.8731 35.8411C86.8731 35.0809 86.623 34.3422 86.162 33.7411C85.9255 33.4751 85.6341 33.2644 85.3085 33.1241C84.9827 32.9838 84.6305 32.9173 84.2766 32.9291C83.9153 32.9176 83.556 32.9855 83.2232 33.1282C82.8905 33.2708 82.5924 33.4847 82.3495 33.7551C81.8389 34.3301 81.5704 35.0834 81.6009 35.8551C81.576 36.6192 81.8385 37.3646 82.3357 37.9411C82.5791 38.2107 82.8773 38.4242 83.2099 38.5667C83.5425 38.7093 83.9016 38.7776 84.2627 38.7671Z" fill="#24282B"/>
<path d="M101.995 39.7885C100.822 40.7599 99.3524 41.2908 97.8358 41.2908C96.3191 41.2908 94.8492 40.7599 93.6767 39.7885C92.6709 38.7278 92.1094 37.3161 92.1094 35.8475C92.1094 34.379 92.6709 32.9671 93.6767 31.9065C94.8504 30.9375 96.3198 30.4082 97.8358 30.4082C99.3517 30.4082 100.821 30.9375 101.995 31.9065C103 32.9647 103.561 34.3743 103.561 35.8405C103.561 37.3067 103 38.7162 101.995 39.7745V39.7885ZM95.8533 37.9405C96.119 38.1958 96.4323 38.3953 96.775 38.5275C97.1178 38.6597 97.4829 38.722 97.8496 38.7105C98.214 38.72 98.5766 38.657 98.9168 38.5248C99.2571 38.3927 99.568 38.1942 99.8321 37.9405C100.316 37.3659 100.581 36.6365 100.581 35.8825C100.581 35.1284 100.316 34.399 99.8321 33.8245C99.568 33.5709 99.2571 33.3723 98.9168 33.2403C98.5766 33.1081 98.214 33.045 97.8496 33.0545C97.4829 33.0431 97.1178 33.1053 96.775 33.2375C96.4323 33.3696 96.119 33.5693 95.8533 33.8245C95.3698 34.399 95.1043 35.1284 95.1043 35.8825C95.1043 36.6365 95.3698 37.3659 95.8533 37.9405Z" fill="#24282B"/>
<path d="M108.565 28.3788C108.198 28.7028 107.728 28.8813 107.241 28.8813C106.754 28.8813 106.283 28.7028 105.917 28.3788C105.751 28.2205 105.618 28.0295 105.528 27.8177C105.437 27.6059 105.391 27.3775 105.391 27.1468C105.391 26.9161 105.437 26.6879 105.528 26.4759C105.618 26.2641 105.751 26.0731 105.917 25.9148C106.287 25.599 106.756 25.4258 107.241 25.4258C107.725 25.4258 108.194 25.599 108.565 25.9148C108.731 26.0731 108.863 26.2641 108.954 26.4759C109.044 26.6879 109.091 26.9161 109.091 27.1468C109.091 27.3775 109.044 27.6059 108.954 27.8177C108.863 28.0295 108.731 28.2205 108.565 28.3788ZM108.856 41.2868C108.032 41.3277 107.218 41.0914 106.541 40.6148C106.263 40.4006 106.04 40.1223 105.89 39.8032C105.741 39.4842 105.669 39.1336 105.681 38.7808V31.1648C105.674 31.1099 105.68 31.0541 105.698 31.0017C105.716 30.9493 105.745 30.9019 105.784 30.8627C105.823 30.8235 105.87 30.7938 105.922 30.7759C105.973 30.7578 106.029 30.7521 106.083 30.7588H108.412C108.676 30.7588 108.8 30.8988 108.8 31.1648V37.7728C108.8 38.3048 109.036 38.5708 109.507 38.5708C109.718 38.5785 109.928 38.5548 110.131 38.5008C110.409 38.5008 110.561 38.5848 110.575 38.8368L110.783 40.5868C110.793 40.6379 110.792 40.6904 110.78 40.7411C110.768 40.7916 110.746 40.8392 110.714 40.8802C110.683 40.9214 110.643 40.9553 110.597 40.9795C110.552 41.0037 110.502 41.0179 110.45 41.0208C109.936 41.192 109.398 41.2818 108.856 41.2868Z" fill="#24282B"/>
<path d="M119.352 30.4222C120.08 30.3932 120.806 30.5121 121.487 30.7718C122.168 31.0316 122.791 31.4268 123.317 31.9342C124.298 32.9968 124.843 34.395 124.843 35.8472C124.843 37.2994 124.298 38.6977 123.317 39.7602C122.793 40.2722 122.171 40.6713 121.49 40.9335C120.808 41.1959 120.081 41.3159 119.352 41.2862C118.314 41.3096 117.297 40.9901 116.455 40.3762V45.4302C116.455 45.6962 116.316 45.8222 116.053 45.8222H113.724C113.671 45.8323 113.616 45.8291 113.564 45.813C113.513 45.7967 113.466 45.7682 113.427 45.7295C113.389 45.6909 113.361 45.6436 113.345 45.5913C113.329 45.5393 113.326 45.484 113.336 45.4302V33.9502C113.352 33.8379 113.342 33.7234 113.307 33.6156C113.271 33.5079 113.212 33.4099 113.132 33.3297C113.053 33.2495 112.956 33.1892 112.849 33.1535C112.742 33.1178 112.629 33.1078 112.518 33.1242H112.06C111.755 33.1242 111.603 33.0122 111.603 32.7882V31.1362C111.595 31.034 111.623 30.9324 111.681 30.8484C111.739 30.7642 111.824 30.7028 111.922 30.6742C112.401 30.4982 112.909 30.4128 113.419 30.4222C113.928 30.3767 114.438 30.4858 114.885 30.7351C115.332 30.9846 115.696 31.3631 115.928 31.8222C116.375 31.3661 116.909 31.0067 117.498 30.7659C118.086 30.5252 118.717 30.4082 119.352 30.4222ZM117.19 37.9402C117.437 38.2012 117.734 38.4088 118.063 38.5506C118.392 38.6924 118.745 38.7655 119.103 38.7655C119.46 38.7655 119.814 38.6924 120.143 38.5506C120.472 38.4088 120.769 38.2012 121.016 37.9402C121.537 37.3537 121.81 36.5853 121.779 35.7982C121.815 35.0106 121.541 34.2403 121.016 33.6562C120.769 33.3954 120.472 33.1878 120.143 33.0459C119.814 32.904 119.46 32.8309 119.103 32.8309C118.745 32.8309 118.392 32.904 118.063 33.0459C117.734 33.1878 117.437 33.3954 117.19 33.6562C116.685 34.2506 116.423 35.016 116.455 35.7982C116.427 36.5798 116.689 37.3438 117.19 37.9402Z" fill="#24282B"/>
<path d="M131.386 41.2866C130.141 41.3383 128.907 41.0377 127.823 40.4186C127.388 40.154 127.018 39.7938 126.739 39.3648C126.461 38.9359 126.282 38.4491 126.215 37.9406C126.215 37.6606 126.312 37.5206 126.617 37.5206H128.655C128.752 37.5245 128.846 37.5552 128.927 37.6097C129.007 37.664 129.072 37.7397 129.112 37.8286C129.403 38.5846 130.166 38.9626 131.386 38.9626C131.812 38.9824 132.235 38.8957 132.62 38.7106C132.753 38.6501 132.866 38.5544 132.95 38.4336C133.033 38.3127 133.081 38.1713 133.091 38.0246C133.091 37.6606 132.869 37.4086 132.426 37.2406C131.9 37.0638 131.356 36.9463 130.804 36.8906C130.15 36.8159 129.502 36.699 128.863 36.5406C128.241 36.3987 127.676 36.0719 127.241 35.6026C126.984 35.2837 126.795 34.9148 126.686 34.519C126.576 34.1232 126.549 33.7088 126.605 33.3019C126.661 32.8947 126.799 32.5036 127.011 32.1529C127.223 31.802 127.504 31.4991 127.837 31.2626C128.836 30.6199 130.009 30.3067 131.192 30.3666C132.338 30.3276 133.471 30.6137 134.464 31.1926C134.864 31.4215 135.208 31.7375 135.472 32.1177C135.736 32.498 135.912 32.9328 135.989 33.3906C135.989 33.6706 135.864 33.8106 135.614 33.8106H133.563C133.476 33.8158 133.39 33.7945 133.316 33.7496C133.242 33.7046 133.183 33.638 133.147 33.5586C133.01 33.2271 132.751 32.9614 132.426 32.8166C132.058 32.6226 131.648 32.5261 131.233 32.5366C130.827 32.5144 130.422 32.5963 130.055 32.7746C129.926 32.825 129.815 32.9132 129.736 33.028C129.656 33.1428 129.613 33.2789 129.611 33.4186C129.62 33.6101 129.69 33.7937 129.81 33.9424C129.929 34.091 130.093 34.1969 130.277 34.2446C130.809 34.4473 131.363 34.5882 131.927 34.6646C132.575 34.7509 133.218 34.8724 133.854 35.0286C134.475 35.1707 135.04 35.4973 135.476 35.9666C135.709 36.2252 135.889 36.5277 136.005 36.857C136.122 37.1862 136.173 37.5355 136.155 37.8846C136.167 38.3686 136.055 38.8474 135.829 39.2744C135.603 39.7013 135.271 40.0618 134.866 40.3206C133.83 40.9922 132.616 41.329 131.386 41.2866Z" fill="#24282B"/>
<path d="M150.81 40.5858C150.818 40.6355 150.815 40.6863 150.804 40.7352C150.792 40.7842 150.771 40.8301 150.74 40.8706C150.711 40.911 150.674 40.9451 150.631 40.9707C150.588 40.9963 150.541 41.013 150.491 41.0198C149.985 41.1867 149.456 41.2764 148.924 41.2858C148.397 41.341 147.865 41.2578 147.38 41.0445C146.893 40.8311 146.47 40.4947 146.151 40.0678C145.173 40.918 143.905 41.3543 142.616 41.2858C142.017 41.3137 141.42 41.2147 140.861 40.9953C140.302 40.7759 139.795 40.4409 139.372 40.0118C138.952 39.5623 138.626 39.0317 138.414 38.4519C138.202 37.8722 138.108 37.2552 138.138 36.6378V31.1638C138.138 30.8978 138.263 30.7578 138.526 30.7578H140.855C141.119 30.7578 141.244 30.8978 141.244 31.1638V36.2178C141.219 36.8475 141.431 37.4633 141.84 37.9398C142.044 38.1582 142.292 38.3299 142.566 38.4434C142.841 38.5569 143.137 38.6096 143.434 38.5978C143.738 38.6113 144.041 38.5638 144.327 38.458C144.612 38.3523 144.875 38.1904 145.098 37.9818C145.308 37.762 145.473 37.5008 145.58 37.2142C145.688 36.9276 145.735 36.6219 145.722 36.3158V31.1638C145.722 30.8978 145.846 30.7578 146.11 30.7578H148.467C148.73 30.7578 148.855 30.8978 148.855 31.1638V37.7578C148.855 38.3038 149.09 38.5698 149.548 38.5698C149.763 38.5782 149.978 38.5547 150.186 38.4998C150.238 38.485 150.294 38.4823 150.346 38.4921C150.401 38.5018 150.45 38.5236 150.495 38.556C150.539 38.5883 150.575 38.6303 150.602 38.6787C150.627 38.7272 150.64 38.7809 150.643 38.8358L150.81 40.5858Z" fill="#24282B"/>
<path d="M172.838 40.5876C172.851 40.6377 172.852 40.6901 172.843 40.7408C172.831 40.7913 172.811 40.8392 172.78 40.8806C172.75 40.9221 172.711 40.9562 172.665 40.9806C172.621 41.0051 172.571 41.0191 172.52 41.0216C172.004 41.1909 171.467 41.2806 170.925 41.2876C170.1 41.3306 169.287 41.0941 168.61 40.6156C168.317 40.4107 168.08 40.1361 167.918 39.8162C167.756 39.4963 167.674 39.1409 167.681 38.7816V35.4916C167.71 34.8639 167.502 34.2483 167.099 33.7696C166.905 33.5508 166.664 33.3783 166.396 33.2645C166.127 33.1508 165.837 33.0986 165.546 33.1116C165.284 33.1017 165.023 33.1519 164.782 33.2586C164.542 33.3653 164.33 33.5257 164.16 33.7276C163.794 34.1968 163.607 34.7831 163.633 35.3796V40.5456C163.633 40.8116 163.508 40.9516 163.245 40.9516H160.902C160.848 40.9585 160.792 40.9526 160.741 40.9347C160.688 40.9166 160.641 40.8869 160.602 40.8477C160.564 40.8087 160.534 40.7611 160.516 40.7087C160.498 40.6564 160.493 40.6006 160.5 40.5456V35.4916C160.53 34.8707 160.338 34.2595 159.959 33.7696C159.79 33.5638 159.578 33.3982 159.338 33.2845C159.1 33.1708 158.838 33.1118 158.573 33.1116C158.29 33.1001 158.008 33.149 157.745 33.2553C157.482 33.3614 157.245 33.5224 157.048 33.7276C156.651 34.1818 156.447 34.7751 156.479 35.3796V40.5456C156.486 40.6006 156.481 40.6564 156.463 40.7087C156.445 40.7611 156.416 40.8087 156.377 40.8477C156.338 40.8869 156.291 40.9166 156.239 40.9347C156.187 40.9526 156.131 40.9585 156.077 40.9516H153.817C153.554 40.9516 153.429 40.8116 153.429 40.5456V33.9516C153.446 33.8393 153.436 33.7248 153.4 33.617C153.366 33.5094 153.306 33.4114 153.226 33.3311C153.147 33.2509 153.049 33.1906 152.943 33.1549C152.836 33.1192 152.722 33.1092 152.611 33.1256H152.154C151.849 33.1256 151.696 33.0136 151.696 32.7896V31.1376C151.689 31.0354 151.717 30.9338 151.775 30.8498C151.834 30.7656 151.918 30.7042 152.015 30.6756C152.495 30.4996 153.002 30.4142 153.513 30.4236C154.002 30.3815 154.494 30.48 154.931 30.708C155.367 30.9359 155.731 31.2838 155.98 31.7116C156.447 31.264 157.002 30.9185 157.608 30.6969C158.214 30.4753 158.858 30.3823 159.502 30.4236C160.127 30.3928 160.749 30.5111 161.321 30.769C161.892 31.0269 162.394 31.4169 162.787 31.9076C163.246 31.404 163.81 31.0098 164.438 30.753C165.066 30.4964 165.743 30.384 166.42 30.4236C167.024 30.3951 167.628 30.4935 168.194 30.7129C168.76 30.9321 169.274 31.2674 169.705 31.6976C170.127 32.1463 170.452 32.6768 170.665 33.2568C170.877 33.8367 170.971 34.4542 170.939 35.0716V37.7736C170.939 38.3056 171.175 38.5716 171.618 38.5716C171.833 38.5817 172.048 38.5582 172.256 38.5016C172.543 38.5016 172.696 38.6136 172.714 38.8376L172.838 40.5876Z" fill="#24282B"/>
<path d="M10.2715 28.939C11.2944 24.7876 13.6632 21.1009 17.0008 18.4663C20.3385 15.8317 24.4531 14.4004 28.6894 14.4004C32.9257 14.4004 37.0403 15.8317 40.3779 18.4663C43.7156 21.1009 46.0844 24.7876 47.1072 28.939H45.4436C42.6372 28.8973 39.8883 29.7443 37.5829 31.361C37.4498 31.4583 37.3109 31.5472 37.167 31.627H36.9729C36.829 31.5472 36.6901 31.4583 36.557 31.361C34.2312 29.7816 31.492 28.9381 28.6894 28.9381C25.8867 28.9381 23.1475 29.7816 20.8218 31.361C20.6887 31.4583 20.5498 31.5472 20.4059 31.627H20.2118C20.0679 31.5472 19.9289 31.4583 19.7959 31.361C17.4905 29.7443 14.7416 28.8973 11.9352 28.939H10.2715ZM42.449 37.717C43.303 37.0454 44.3615 36.694 45.4436 36.723H47.6756V32.229H45.4436C43.5376 32.2057 41.6753 32.8048 40.1338 33.937C39.2664 34.5828 38.217 34.9313 37.1393 34.9313C36.0615 34.9313 35.0122 34.5828 34.1447 33.937C32.5641 32.8259 30.6845 32.2302 28.7587 32.2302C26.8329 32.2302 24.9533 32.8259 23.3727 33.937C22.5052 34.5828 21.4559 34.9313 20.3781 34.9313C19.3004 34.9313 18.251 34.5828 17.3836 33.937C15.8231 32.7902 13.934 32.1905 12.0045 32.229H9.70312V36.723H11.9352C13.0172 36.694 14.0757 37.0454 14.9297 37.717C16.5074 38.8289 18.3849 39.425 20.3088 39.425C22.2327 39.425 24.1102 38.8289 25.6879 37.717C26.543 37.0475 27.6007 36.6964 28.6824 36.723C29.7649 36.6916 30.8241 37.0433 31.677 37.717C33.2576 38.8282 35.1372 39.4237 37.063 39.4237C38.9888 39.4237 40.8684 38.8282 42.449 37.717ZM42.449 45.753C43.303 45.0814 44.3615 44.73 45.4436 44.759H47.6756V40.265H45.4436C43.5376 40.2417 41.6753 40.8408 40.1338 41.973C39.2664 42.6188 38.217 42.9673 37.1393 42.9673C36.0615 42.9673 35.0122 42.6188 34.1447 41.973C32.5641 40.8619 30.6845 40.2664 28.7587 40.2664C26.8329 40.2664 24.9533 40.8619 23.3727 41.973C22.5052 42.6188 21.4559 42.9673 20.3781 42.9673C19.3004 42.9673 18.251 42.6188 17.3836 41.973C15.8231 40.8264 13.934 40.2265 12.0045 40.265H9.70312V44.759H11.9352C13.0172 44.73 14.0757 45.0814 14.9297 45.753C16.5074 46.8649 18.3849 47.461 20.3088 47.461C22.2327 47.461 24.1102 46.8649 25.6879 45.753C26.543 45.0835 27.6007 44.7324 28.6824 44.759C29.7649 44.7276 30.8241 45.0793 31.677 45.753C33.2576 46.8642 35.1372 47.4597 37.063 47.4597C38.9888 47.4597 40.8684 46.8642 42.449 45.753Z" fill="#24282B"/>
</svg>
