<svg width="202" height="65" viewBox="0 0 202 65" fill="none" xmlns="http://www.w3.org/2000/svg">
<path d="M32.3463 30.6117C31.7995 31.1709 31.3808 31.8459 31.1199 32.5883C30.859 33.3309 30.7625 34.1227 30.8371 34.9076L30.8111 34.8812C30.8879 35.805 30.7652 36.7346 30.452 37.6053C30.1387 38.476 29.6424 39.2666 28.9976 39.9222C28.3526 40.5777 27.5748 41.0824 26.7182 41.4006C25.8617 41.719 24.9471 41.8437 24.0383 41.7657L24.0643 41.7921C22.9773 41.6893 21.8855 41.9297 20.9376 42.4807C19.99 43.0317 19.2325 43.8664 18.7686 44.8711C18.3047 45.8757 18.1568 47.0012 18.3453 48.0945C18.5338 49.1876 19.0494 50.1951 19.8217 50.9794C20.5941 51.7638 21.5856 52.287 22.6611 52.4775C23.7368 52.6681 24.8439 52.5168 25.8318 52.0444C26.8197 51.5718 27.6401 50.8012 28.1814 49.8373C28.7226 48.8734 28.9582 47.7635 28.856 46.6585L28.8835 46.6849C28.8067 45.7612 28.9292 44.8315 29.2424 43.9607C29.5557 43.0901 30.0522 42.2994 30.697 41.6438C31.3419 40.9884 32.1198 40.4837 32.9763 40.1654C33.8329 39.847 34.7474 39.7223 35.6562 39.8004L35.6288 39.774C36.5167 39.8551 37.4106 39.7071 38.2274 39.3436C39.0441 38.9802 39.7574 38.413 40.3011 37.6948C40.8447 36.9766 41.2014 36.1303 41.3376 35.2348C41.474 34.3391 41.3857 33.423 41.0809 32.5712C40.7762 31.7195 40.2649 30.9597 39.5944 30.3624C38.9239 29.765 38.1159 29.3493 37.2452 29.154C36.3746 28.9586 35.4695 28.9897 34.6139 29.2445C33.7583 29.4994 32.9799 29.9696 32.3506 30.6117H32.3463Z" fill="#24282B"/>
<path d="M21.7031 38.3328L21.6757 38.3064C22.4481 38.3854 23.2281 38.2891 23.9594 38.0242C24.6907 37.7593 25.355 37.3326 25.9041 36.7749C26.4531 36.2171 26.8736 35.5421 27.1346 34.799C27.3958 34.0558 27.4911 33.2631 27.4139 32.4778L27.4413 32.5042C27.3646 31.5804 27.4872 30.6508 27.8003 29.78C28.1136 28.9094 28.6101 28.1187 29.2549 27.4631C29.8998 26.8077 30.6777 26.303 31.5342 25.9847C32.3908 25.6663 33.3053 25.5417 34.2141 25.6197L34.1867 25.5933C35.2739 25.6971 36.366 25.4574 37.3142 24.907C38.2626 24.3567 39.0207 23.5223 39.4853 22.5178C39.9499 21.5134 40.0984 20.3877 39.9105 19.2943C39.7227 18.2008 39.2076 17.193 38.4353 16.4081C37.6633 15.6232 36.6717 15.0996 35.5961 14.9086C34.5204 14.7176 33.413 14.8685 32.4248 15.3408C31.4366 15.8131 30.6159 16.5838 30.0744 17.5477C29.5329 18.5116 29.2972 19.6218 29.3993 20.7269L29.3733 20.699C29.4502 21.6229 29.3279 22.5526 29.0148 23.4234C28.7017 24.2942 28.2052 25.085 27.5604 25.7407C26.9154 26.3961 26.1374 26.9008 25.2808 27.2191C24.424 27.5374 23.5094 27.6617 22.6006 27.5836L22.6265 27.6114C21.8542 27.5324 21.074 27.6287 20.3428 27.8936C19.6115 28.1583 18.9472 28.5851 18.3981 29.1429C17.8489 29.7007 17.4286 30.3757 17.1675 31.1188C16.9065 31.862 16.8111 32.6547 16.8883 33.44L16.8623 33.4136C16.9388 34.3373 16.816 35.2668 16.5028 36.1375C16.1894 37.0079 15.693 37.7986 15.0482 38.4541C14.4033 39.1095 13.6256 39.614 12.7692 39.9326C11.9127 40.251 10.9983 40.3758 10.0896 40.2981L10.1155 40.3245C9.02836 40.2207 7.93616 40.4603 6.9879 41.0107C6.03965 41.5612 5.2815 42.3954 4.81689 43.4C4.35226 44.4045 4.20376 45.5301 4.39166 46.6235C4.57957 47.7169 5.09473 48.7248 5.86684 49.5096C6.63897 50.2946 7.63048 50.8182 8.70614 51.0092C9.7818 51.2001 10.8892 51.0492 11.8774 50.5769C12.8656 50.1047 13.6864 49.3341 14.2278 48.3702C14.7693 47.4062 15.0051 46.296 14.9029 45.1909L14.9303 45.2173C14.8536 44.2934 14.9762 43.3639 15.2895 42.4931C15.6026 41.6225 16.0991 40.8318 16.7439 40.1762C17.3888 39.5208 18.1667 39.0161 19.0231 38.6978C19.8798 38.3794 20.7943 38.2547 21.7031 38.3328Z" fill="#24282B"/>
<path d="M12.0349 35.3881C12.5817 34.829 13.0004 34.154 13.261 33.4114C13.5217 32.6689 13.6178 31.8769 13.5426 31.0922L13.57 31.1186C13.4933 30.1946 13.6159 29.2646 13.9293 28.3937C14.2427 27.5228 14.7393 26.7319 15.3846 26.0763C16.0298 25.4208 16.808 24.9163 17.6649 24.5981C18.5218 24.2799 19.4367 24.1556 20.3457 24.2341L20.3183 24.2077C21.4051 24.3112 22.4969 24.0714 23.4447 23.521C24.3925 22.9707 25.1501 22.1366 25.6146 21.1324C26.0789 20.1282 26.2272 19.0029 26.0394 17.9099C25.8515 16.8169 25.3364 15.8094 24.5646 15.0249C23.7928 14.2403 22.8016 13.7168 21.7264 13.5258C20.6512 13.3348 19.5441 13.4856 18.5563 13.9576C17.5684 14.4296 16.7478 15.1999 16.2064 16.1633C15.6649 17.1268 15.429 18.2365 15.5309 19.3413L15.5049 19.3149C15.5817 20.2386 15.459 21.1683 15.1458 22.039C14.8326 22.9097 14.3362 23.7004 13.6913 24.3559C13.0465 25.0114 12.2686 25.516 11.412 25.8343C10.5555 26.1528 9.64093 26.2774 8.73215 26.1994L8.75812 26.2258C7.87014 26.1448 6.97642 26.2931 6.1598 26.6567C5.34317 27.0203 4.63003 27.5876 4.0865 28.306C3.54296 29.0242 3.1866 29.8705 3.05042 30.766C2.91426 31.6617 3.00269 32.5778 3.30753 33.4293C3.61236 34.281 4.12375 35.0406 4.79429 35.6378C5.46483 36.2352 6.27283 36.6507 7.14342 36.8461C8.014 37.0413 8.919 37.0101 9.77457 36.7553C10.6301 36.5004 11.4086 36.0302 12.0377 35.3881H12.0349Z" fill="#24282B"/>
<path d="M56.7305 20.7617H61.0157V41.9594H56.7305V20.7617Z" fill="#24282B"/>
<path d="M63.4416 34.699C63.4357 33.1758 63.8746 31.6847 64.7028 30.4152C65.531 29.1457 66.7113 28.1545 68.0941 27.5674C69.4769 26.9801 71 26.8233 72.4706 27.1168C73.9411 27.4103 75.293 28.1407 76.3547 29.2158C77.4165 30.2907 78.1406 31.6619 78.4352 33.1555C78.7298 34.6492 78.5817 36.1981 78.0096 37.6061C77.4375 39.014 76.4671 40.2178 75.2215 41.0647C73.9758 41.9117 72.511 42.3638 71.0123 42.3638C70.0176 42.3754 69.0305 42.1852 68.1088 41.8044C67.1871 41.4237 66.3494 40.8601 65.6446 40.1465C64.9396 39.4328 64.3818 38.5835 64.0036 37.6482C63.6253 36.7129 63.4343 35.7103 63.4416 34.699ZM74.2977 34.699C74.2798 34.0424 74.0719 33.4057 73.7 32.8685C73.3281 32.3314 72.8086 31.9175 72.2067 31.6789C71.6046 31.4401 70.9468 31.387 70.3152 31.5263C69.6837 31.6657 69.1066 31.991 68.656 32.4619C68.2055 32.9327 67.9013 33.5282 67.782 34.1738C67.6625 34.8193 67.7328 35.4863 67.9843 36.0915C68.2358 36.6966 68.6571 37.2129 69.1956 37.5759C69.7342 37.9389 70.3662 38.1325 71.0123 38.1325C71.4548 38.1445 71.895 38.0631 72.3052 37.8936C72.7153 37.724 73.0864 37.47 73.395 37.1475C73.7036 36.8248 73.9433 36.4407 74.0986 36.0193C74.2539 35.598 74.3218 35.1484 74.2977 34.699Z" fill="#24282B"/>
<path d="M95.6618 27.4385V41.2252C95.6618 46.1033 91.9191 48.1655 88.12 48.1655C86.7825 48.2673 85.4431 47.9926 84.2488 47.3717C83.0547 46.7507 82.0518 45.8075 81.3501 44.6455L85.0063 42.4968C85.3013 43.1025 85.7712 43.6022 86.3531 43.9292C86.9352 44.2559 87.6015 44.3944 88.2629 44.3257C88.6856 44.3853 89.1162 44.3475 89.5226 44.215C89.9289 44.0826 90.3009 43.8589 90.6108 43.5607C90.9208 43.2624 91.1607 42.8972 91.3131 42.4918C91.4653 42.0866 91.5259 41.6517 91.4905 41.2193V39.892C90.9887 40.5161 90.3501 41.012 89.6256 41.3398C88.9012 41.6676 88.1114 41.8182 87.3192 41.7796C85.4346 41.7192 83.647 40.9157 82.3349 39.5391C81.0228 38.1627 80.2891 36.3211 80.2891 34.4045C80.2891 32.4878 81.0228 30.6463 82.3349 29.2698C83.647 27.8932 85.4346 27.0898 87.3192 27.0293C88.1114 26.9908 88.9012 27.1414 89.6256 27.4692C90.3501 27.797 90.9887 28.2929 91.4905 28.9169V27.4356L95.6618 27.4385ZM91.492 34.4067C91.5208 33.7047 91.3422 33.01 90.9793 32.412C90.6165 31.8139 90.0858 31.34 89.4557 31.0512C88.8256 30.7623 88.1249 30.6718 87.4438 30.7912C86.7626 30.9106 86.1322 31.2344 85.6336 31.7212C85.135 32.2079 84.7912 32.835 84.6462 33.522C84.5013 34.209 84.5619 34.9244 84.8205 35.5761C85.0789 36.2277 85.5233 36.7859 86.0964 37.1787C86.6695 37.5715 87.3452 37.7809 88.0363 37.78C88.4867 37.812 88.9384 37.7477 89.3628 37.5914C89.7871 37.4351 90.1745 37.19 90.5 36.8723C90.8255 36.5545 91.0821 36.1709 91.2529 35.7462C91.4237 35.3216 91.5053 34.8653 91.492 34.4067Z" fill="#24282B"/>
<path d="M98.09 34.699C98.0841 33.1758 98.5229 31.6847 99.3512 30.4152C100.179 29.1457 101.36 28.1545 102.743 27.5674C104.125 26.9801 105.648 26.8233 107.119 27.1168C108.59 27.4103 109.941 28.1407 111.003 29.2158C112.065 30.2907 112.789 31.6619 113.084 33.1555C113.378 34.6492 113.23 36.1981 112.658 37.6061C112.086 39.014 111.116 40.2178 109.87 41.0647C108.624 41.9117 107.159 42.3638 105.661 42.3638C104.666 42.3754 103.679 42.1852 102.757 41.8044C101.836 41.4237 100.998 40.8601 100.293 40.1465C99.588 39.4328 99.0302 38.5835 98.652 37.6482C98.2737 36.7129 98.0827 35.7103 98.09 34.699ZM108.946 34.699C108.928 34.0424 108.72 33.4057 108.348 32.8685C107.976 32.3314 107.457 31.9175 106.855 31.6789C106.253 31.4401 105.595 31.387 104.964 31.5263C104.332 31.6657 103.755 31.991 103.304 32.4619C102.854 32.9327 102.55 33.5282 102.43 34.1738C102.311 34.8193 102.381 35.4863 102.633 36.0915C102.884 36.6966 103.306 37.2129 103.844 37.5759C104.383 37.9389 105.014 38.1325 105.661 38.1325C106.103 38.1445 106.543 38.0631 106.954 37.8936C107.364 37.724 107.735 37.47 108.043 37.1475C108.352 36.8248 108.592 36.4407 108.747 36.0193C108.902 35.598 108.97 35.1484 108.946 34.699Z" fill="#24282B"/>
<path d="M115.227 23.5491C115.227 23.0322 115.377 22.5269 115.66 22.0971C115.942 21.6673 116.344 21.3323 116.814 21.1345C117.284 20.9367 117.801 20.8849 118.299 20.9858C118.798 21.0866 119.256 21.3355 119.616 21.7011C119.975 22.0666 120.22 22.5323 120.32 23.0393C120.419 23.5462 120.368 24.0718 120.173 24.5493C119.979 25.0269 119.649 25.4351 119.226 25.7223C118.803 26.0095 118.306 26.1628 117.798 26.1628C117.118 26.1559 116.468 25.8784 115.987 25.3896C115.506 24.901 115.233 24.2402 115.227 23.5491ZM115.659 27.4402H119.946V41.9602H115.654L115.659 27.4402Z" fill="#24282B"/>
<path d="M138.45 34.6997C138.499 35.6594 138.362 36.6195 138.045 37.5248C137.728 38.4302 137.239 39.263 136.604 39.9753C135.97 40.6876 135.203 41.2654 134.348 41.6755C133.493 42.0854 132.567 42.3197 131.622 42.3645C130.828 42.4085 130.034 42.2724 129.298 41.9661C128.562 41.6595 127.903 41.1905 127.367 40.5928V47.7663H123.082V27.4397H127.367V28.8037C127.903 28.2065 128.563 27.7378 129.299 27.4317C130.035 27.1254 130.828 26.9895 131.622 27.0335C132.567 27.0782 133.493 27.3123 134.348 27.7224C135.204 28.1325 135.97 28.7103 136.605 29.4228C137.24 30.1353 137.729 30.9684 138.046 31.8741C138.362 32.7796 138.5 33.74 138.45 34.6997ZM134.165 34.6997C134.148 34.0202 133.934 33.3608 133.551 32.8039C133.167 32.2472 132.63 31.8177 132.008 31.5696C131.385 31.3213 130.705 31.2651 130.051 31.4082C129.397 31.5512 128.799 31.8871 128.333 32.3738C127.866 32.8605 127.55 33.4763 127.426 34.1443C127.302 34.8122 127.374 35.5025 127.634 36.1289C127.894 36.7553 128.33 37.2897 128.887 37.6656C129.444 38.0414 130.098 38.2419 130.767 38.2417C131.226 38.2626 131.684 38.1844 132.111 38.0125C132.539 37.8408 132.925 37.579 133.246 37.2446C133.567 36.91 133.815 36.5105 133.973 36.072C134.131 35.6334 134.197 35.1657 134.165 34.6997Z" fill="#24282B"/>
<path d="M151.676 37.6032C151.676 40.9428 148.821 42.3655 145.736 42.3655C144.489 42.4802 143.238 42.2124 142.143 41.5962C141.048 40.9802 140.16 40.0445 139.594 38.91L143.306 36.7614C143.456 37.2857 143.779 37.742 144.22 38.0536C144.661 38.3655 145.195 38.514 145.73 38.4744C146.758 38.4744 147.273 38.1547 147.273 37.5754C147.273 35.9767 140.244 36.82 140.244 31.7967C140.244 28.6302 142.873 27.0344 145.844 27.0344C146.961 26.9985 148.066 27.2678 149.046 27.8141C150.026 28.3606 150.844 29.164 151.414 30.1408L147.757 32.1443C147.597 31.764 147.33 31.44 146.99 31.2128C146.649 30.9856 146.251 30.8654 145.844 30.8668C145.101 30.8668 144.644 31.1602 144.644 31.6794C144.65 33.3352 151.676 32.2308 151.676 37.6032Z" fill="#24282B"/>
<path d="M167.328 27.4395V41.9595H163.043V40.594C162.548 41.1965 161.92 41.6713 161.211 41.9793C160.501 42.2873 159.73 42.4197 158.96 42.3657C156.074 42.3657 153.621 40.2757 153.621 36.3524V27.4395H157.906V35.7144C157.87 36.0602 157.909 36.4099 158.02 36.7389C158.13 37.068 158.31 37.3686 158.547 37.6199C158.784 37.8711 159.071 38.0669 159.39 38.1938C159.707 38.3207 160.049 38.3755 160.391 38.3544C161.962 38.3544 163.047 37.426 163.047 35.3639V27.4439L167.328 27.4395Z" fill="#24282B"/>
<path d="M191.902 33.0439V41.9583H187.616V33.4208C187.616 31.9688 186.931 31.0404 185.56 31.0404C184.132 31.0404 183.331 32.0568 183.331 33.7699V41.9583H179.047V33.4208C179.047 31.9688 178.362 31.0404 176.99 31.0404C175.561 31.0404 174.762 32.0568 174.762 33.7699V41.9583H170.477V27.4383H174.762V28.7729C175.206 28.1808 175.789 27.7112 176.457 27.4072C177.127 27.103 177.86 26.9741 178.59 27.032C179.323 26.9955 180.053 27.1529 180.709 27.4886C181.364 27.8242 181.923 28.3269 182.331 28.9475C182.806 28.2982 183.435 27.7819 184.159 27.4469C184.884 27.1119 185.68 26.9692 186.474 27.032C189.753 27.0335 191.902 29.4139 191.902 33.0439Z" fill="#24282B"/>
<path d="M195.524 27.3518C197.28 27.3518 198.704 25.9045 198.704 24.1193C198.704 22.334 197.28 20.8867 195.524 20.8867C193.768 20.8867 192.344 22.334 192.344 24.1193C192.344 25.9045 193.768 27.3518 195.524 27.3518Z" fill="#24282B"/>
</svg>
