<svg width="184" height="64" viewBox="0 0 184 64" fill="none" xmlns="http://www.w3.org/2000/svg">
<path d="M54.3906 22.7636H58.8409V40.9636H54.3906V22.7636ZM60.6154 34.1176C60.6154 29.6096 63.3881 26.9076 67.5472 26.9076C71.7063 26.9076 74.479 29.6096 74.479 34.1176C74.479 38.6256 71.8034 41.3556 67.5472 41.3556C63.2911 41.3556 60.6154 38.7236 60.6154 34.1176ZM70.0704 34.1176C70.0704 31.6396 69.1138 30.1836 67.5888 30.1836C66.0638 30.1836 65.1211 31.5836 65.1211 34.1176C65.1211 36.6516 66.0638 38.0376 67.5888 38.0376C69.1138 38.0376 70.0981 36.6516 70.0981 34.1316L70.0704 34.1176ZM76.2536 41.9016H80.5513C80.7469 42.3687 81.0887 42.7586 81.5243 43.0113C81.9599 43.2642 82.4653 43.3661 82.9636 43.3016C84.6688 43.3016 85.5561 42.3776 85.5561 41.0056V38.4856H85.5699C85.2027 39.2703 84.6088 39.9242 83.8665 40.3616C83.1241 40.7989 82.268 40.999 81.4109 40.9356C78.1529 40.9356 75.9902 38.4296 75.9902 34.1176C75.9902 29.8056 78.0559 27.1176 81.5356 27.1176C82.4147 27.0701 83.2869 27.299 84.0316 27.7729C84.7765 28.2468 85.3576 28.9423 85.6947 29.7636H85.5699V27.2296H89.9786V40.8656C89.9786 44.1556 87.0949 46.2136 82.8527 46.2136C78.9986 46.1996 76.5309 44.4216 76.2813 41.9156L76.2536 41.9016ZM85.5699 34.1176C85.5699 31.9196 84.5718 30.5336 82.9913 30.5336C81.4109 30.5336 80.4404 31.9336 80.4404 34.1176C80.4404 36.3016 81.397 37.5896 82.9913 37.5896C84.5856 37.5896 85.5699 36.3996 85.5699 34.1176ZM91.7393 34.1176C91.7393 29.6096 94.512 26.9076 98.6711 26.9076C102.83 26.9076 105.603 29.6096 105.603 34.1176C105.603 38.6256 102.913 41.3556 98.6711 41.3556C94.4288 41.3556 91.767 38.7236 91.767 34.1176H91.7393ZM101.194 34.1176C101.194 31.6396 100.224 30.1836 98.7127 30.1836C97.2015 30.1836 96.2449 31.5836 96.2449 34.1176C96.2449 36.6516 97.1877 38.0376 98.7127 38.0376C100.238 38.0376 101.222 36.6516 101.222 34.1316L101.194 34.1176ZM107.405 23.9116C107.386 23.4538 107.502 23.0006 107.74 22.6104C107.978 22.2201 108.326 21.9107 108.739 21.7218C109.153 21.5328 109.613 21.4732 110.06 21.5505C110.507 21.6276 110.921 21.8382 111.249 22.155C111.577 22.4719 111.803 22.8805 111.899 23.3283C111.995 23.7762 111.956 24.2428 111.787 24.668C111.618 25.0933 111.327 25.4579 110.951 25.7148C110.576 25.9717 110.133 26.1091 109.679 26.1096C109.389 26.117 109.1 26.0662 108.83 25.9602C108.56 25.8541 108.313 25.6947 108.104 25.4916C107.895 25.2885 107.728 25.0454 107.613 24.7765C107.498 24.5077 107.437 24.2184 107.433 23.9256L107.405 23.9116ZM107.405 27.2156H111.911V41.0196H107.474L107.405 27.2156ZM128.117 34.1176C128.117 38.6116 126.121 41.2156 122.724 41.2156C121.855 41.2697 120.99 41.053 120.246 40.5949C119.502 40.1367 118.916 39.4591 118.565 38.6536H118.482V45.4576H114.032V27.2576H118.454V29.7216H118.538C118.876 28.9002 119.457 28.204 120.201 27.728C120.945 27.252 121.817 27.0193 122.697 27.0616C126.19 27.0336 128.201 29.6236 128.201 34.1316L128.117 34.1176ZM123.584 34.1176C123.584 31.9336 122.572 30.5196 121.005 30.5196C119.439 30.5196 118.454 31.9196 118.441 34.1176C118.427 36.3156 119.439 37.7016 121.005 37.7016C122.572 37.7016 123.667 36.3996 123.667 34.1316L123.584 34.1176ZM135.715 26.8936C139.444 26.8936 141.759 28.6716 141.787 31.5276H137.725C137.725 30.5336 136.907 29.9176 135.687 29.9176C134.467 29.9176 133.885 30.3936 133.885 31.1076C133.885 31.8216 134.398 32.0456 135.424 32.2556L138.279 32.8436C141.052 33.4316 142.161 34.5516 142.161 36.6376C142.161 39.4376 139.597 41.3416 135.784 41.3416C131.972 41.3416 129.49 39.4936 129.31 36.6796H133.621C133.746 37.7016 134.55 38.3036 135.853 38.3036C137.157 38.3036 137.767 37.8836 137.767 37.1416C137.767 36.3996 137.351 36.2736 136.283 36.0496L133.704 35.5036C131.029 34.9296 129.629 33.5156 129.629 31.4016C129.712 28.6576 132.041 26.9076 135.798 26.9076L135.715 26.8936ZM157.065 41.0056H152.753V38.4156H152.67C152.429 39.2795 151.903 40.0345 151.18 40.5562C150.456 41.0779 149.578 41.3351 148.691 41.2856C148.021 41.3075 147.353 41.1863 146.734 40.9295C146.114 40.6729 145.554 40.2867 145.092 39.7962C144.629 39.3057 144.276 38.722 144.052 38.0836C143.829 37.4452 143.742 36.7662 143.797 36.0916V27.2296H148.247V35.1256C148.247 36.7496 149.093 37.6316 150.479 37.6316C150.805 37.629 151.126 37.5561 151.421 37.4178C151.716 37.2793 151.978 37.0786 152.189 36.8291C152.401 36.5796 152.558 36.2871 152.648 35.9716C152.736 35.6559 152.759 35.3245 152.712 34.9996V27.2296H157.148L157.065 41.0056ZM159.214 27.2156H163.539V29.8756H163.636C163.875 29.0234 164.387 28.2754 165.092 27.7484C165.797 27.2216 166.656 26.9455 167.532 26.9636C168.412 26.8863 169.29 27.1433 169.991 27.6844C170.694 28.2255 171.171 29.0119 171.33 29.8896H171.524C171.802 29.0071 172.359 28.2419 173.112 27.7128C173.863 27.1836 174.769 26.9203 175.684 26.9636C176.292 26.9402 176.899 27.0469 177.464 27.2766C178.029 27.5062 178.54 27.8538 178.962 28.2966C179.385 28.7393 179.71 29.2673 179.916 29.8457C180.124 30.4242 180.207 31.0402 180.162 31.6536V41.0196H175.684V32.8016C175.684 31.4016 175.032 30.6176 173.77 30.6176C173.49 30.6129 173.213 30.6695 172.957 30.7832C172.7 30.897 172.473 31.0654 172.287 31.2768C172.101 31.4884 171.963 31.7377 171.881 32.0082C171.8 32.2787 171.778 32.5636 171.816 32.8436V41.0196H167.573V32.7596C167.573 31.3596 166.894 30.6176 165.674 30.6176C165.391 30.6153 165.111 30.6741 164.853 30.79C164.594 30.9061 164.364 31.0765 164.175 31.29C163.988 31.5035 163.848 31.7551 163.765 32.0278C163.68 32.3006 163.655 32.5883 163.692 32.8716V41.0196H159.241L159.214 27.2156Z" fill="#24282B"/>
<path d="M45.584 23.9538C45.5841 21.1673 44.7509 18.4458 43.1935 16.1457C41.636 13.8456 39.4269 12.0741 36.8556 11.0633C34.2843 10.0525 31.4705 9.84949 28.7831 10.4809C26.0955 11.1123 23.6595 12.5486 21.794 14.6018H4.49219V51.4778H41.0228V34.2438C42.4566 32.9488 43.604 31.363 44.3899 29.5899C45.1758 27.8168 45.5827 25.8964 45.584 23.9538ZM38.5551 23.9538C38.5579 25.2889 38.1683 26.595 37.4358 27.7066C36.7031 28.8181 35.6605 29.6852 34.4397 30.198C33.2189 30.711 31.8749 30.8467 30.5777 30.5878C29.2806 30.3291 28.0886 29.6875 27.1527 28.7443C26.2168 27.8011 25.579 26.5988 25.3201 25.2894C25.0611 23.9801 25.1926 22.6225 25.698 21.3887C26.2033 20.1548 27.0598 19.1001 28.1589 18.358C29.2582 17.6159 30.5507 17.2198 31.8728 17.2198C33.6427 17.2198 35.3403 17.9288 36.593 19.1913C37.8459 20.4537 38.5515 22.1665 38.5551 23.9538ZM33.994 44.3798H11.5211V21.6998H18.3697C18.2374 22.4439 18.1678 23.1979 18.1617 23.9538C18.1654 27.6248 19.6111 31.1444 22.1817 33.7403C24.7522 36.3361 28.2375 37.7961 31.8728 37.7998C32.5836 37.796 33.2929 37.7351 33.994 37.6178V44.3798Z" fill="#24282B"/>
</svg>
